%TF.GenerationSoftware,KiCad,Pcbnew,8.0.9*%
%TF.CreationDate,2026-01-03T01:42:30+09:00*%
%TF.ProjectId,Display,44697370-6c61-4792-9e6b-696361645f70,rev?*%
%TF.SameCoordinates,Original*%
%TF.FileFunction,Soldermask,Bot*%
%TF.FilePolarity,Negative*%
%FSLAX46Y46*%
G04 Gerber Fmt 4.6, Leading zero omitted, Abs format (unit mm)*
G04 Created by KiCad (PCBNEW 8.0.9) date 2026-01-03 01:42:30*
%MOMM*%
%LPD*%
G01*
G04 APERTURE LIST*
%ADD10C,0.501200*%
%ADD11C,0.010000*%
%ADD12R,1.700000X1.700000*%
%ADD13O,1.700000X1.700000*%
G04 APERTURE END LIST*
D10*
%TO.C,J2*%
X154500600Y-102600000D02*
G75*
G02*
X153999400Y-102600000I-250600J0D01*
G01*
X153999400Y-102600000D02*
G75*
G02*
X154500600Y-102600000I250600J0D01*
G01*
X153250600Y-102600000D02*
G75*
G02*
X152749400Y-102600000I-250600J0D01*
G01*
X152749400Y-102600000D02*
G75*
G02*
X153250600Y-102600000I250600J0D01*
G01*
X152000600Y-102600000D02*
G75*
G02*
X151499400Y-102600000I-250600J0D01*
G01*
X151499400Y-102600000D02*
G75*
G02*
X152000600Y-102600000I250600J0D01*
G01*
X150750600Y-102600000D02*
G75*
G02*
X150249400Y-102600000I-250600J0D01*
G01*
X150249400Y-102600000D02*
G75*
G02*
X150750600Y-102600000I250600J0D01*
G01*
X149500600Y-102600000D02*
G75*
G02*
X148999400Y-102600000I-250600J0D01*
G01*
X148999400Y-102600000D02*
G75*
G02*
X149500600Y-102600000I250600J0D01*
G01*
X148250600Y-102600000D02*
G75*
G02*
X147749400Y-102600000I-250600J0D01*
G01*
X147749400Y-102600000D02*
G75*
G02*
X148250600Y-102600000I250600J0D01*
G01*
X147000600Y-102600000D02*
G75*
G02*
X146499400Y-102600000I-250600J0D01*
G01*
X146499400Y-102600000D02*
G75*
G02*
X147000600Y-102600000I250600J0D01*
G01*
D11*
X146001200Y-103101200D02*
X144998800Y-103101200D01*
X144998800Y-102098800D01*
X146001200Y-102098800D01*
X146001200Y-103101200D01*
G36*
X146001200Y-103101200D02*
G01*
X144998800Y-103101200D01*
X144998800Y-102098800D01*
X146001200Y-102098800D01*
X146001200Y-103101200D01*
G37*
%TD*%
D12*
%TO.C,J1*%
X158900000Y-96400000D03*
D13*
X156360000Y-96400000D03*
X153820000Y-96400000D03*
X151280000Y-96400000D03*
X148740000Y-96400000D03*
X146200000Y-96400000D03*
X143660000Y-96400000D03*
X141120000Y-96400000D03*
%TD*%
M02*
