%TF.GenerationSoftware,KiCad,Pcbnew,8.0.9*%
%TF.CreationDate,2026-01-03T01:42:26+09:00*%
%TF.ProjectId,Display,44697370-6c61-4792-9e6b-696361645f70,rev?*%
%TF.SameCoordinates,Original*%
%TF.FileFunction,Drillmap*%
%TF.FilePolarity,Positive*%
%FSLAX45Y45*%
G04 Gerber Fmt 4.5, Leading zero omitted, Abs format (unit mm)*
G04 Created by KiCad (PCBNEW 8.0.9) date 2026-01-03 01:42:26*
%MOMM*%
%LPD*%
G01*
G04 APERTURE LIST*
%ADD10C,0.050000*%
%ADD11C,0.200000*%
G04 APERTURE END LIST*
D10*
X15700000Y-10400000D02*
X16050000Y-9800000D01*
X16050000Y-9800000D02*
X16050000Y-9500000D01*
X13950000Y-9500000D02*
X16050000Y-9500000D01*
X13950000Y-9500000D02*
X13950000Y-9800000D01*
X14300000Y-10400000D02*
X13950000Y-9800000D01*
X14300000Y-10400000D02*
X15700000Y-10400000D01*
D11*
X14208277Y-10713984D02*
X14208277Y-10513984D01*
X14208277Y-10513984D02*
X14255896Y-10513984D01*
X14255896Y-10513984D02*
X14284467Y-10523508D01*
X14284467Y-10523508D02*
X14303515Y-10542555D01*
X14303515Y-10542555D02*
X14313039Y-10561603D01*
X14313039Y-10561603D02*
X14322562Y-10599698D01*
X14322562Y-10599698D02*
X14322562Y-10628270D01*
X14322562Y-10628270D02*
X14313039Y-10666365D01*
X14313039Y-10666365D02*
X14303515Y-10685412D01*
X14303515Y-10685412D02*
X14284467Y-10704460D01*
X14284467Y-10704460D02*
X14255896Y-10713984D01*
X14255896Y-10713984D02*
X14208277Y-10713984D01*
X14408277Y-10713984D02*
X14408277Y-10580650D01*
X14408277Y-10618746D02*
X14417801Y-10599698D01*
X14417801Y-10599698D02*
X14427324Y-10590174D01*
X14427324Y-10590174D02*
X14446372Y-10580650D01*
X14446372Y-10580650D02*
X14465420Y-10580650D01*
X14532086Y-10713984D02*
X14532086Y-10580650D01*
X14532086Y-10513984D02*
X14522562Y-10523508D01*
X14522562Y-10523508D02*
X14532086Y-10533031D01*
X14532086Y-10533031D02*
X14541610Y-10523508D01*
X14541610Y-10523508D02*
X14532086Y-10513984D01*
X14532086Y-10513984D02*
X14532086Y-10533031D01*
X14655896Y-10713984D02*
X14636848Y-10704460D01*
X14636848Y-10704460D02*
X14627324Y-10685412D01*
X14627324Y-10685412D02*
X14627324Y-10513984D01*
X14760658Y-10713984D02*
X14741610Y-10704460D01*
X14741610Y-10704460D02*
X14732086Y-10685412D01*
X14732086Y-10685412D02*
X14732086Y-10513984D01*
X14989229Y-10713984D02*
X14989229Y-10513984D01*
X14989229Y-10513984D02*
X15055896Y-10656841D01*
X15055896Y-10656841D02*
X15122562Y-10513984D01*
X15122562Y-10513984D02*
X15122562Y-10713984D01*
X15303515Y-10713984D02*
X15303515Y-10609222D01*
X15303515Y-10609222D02*
X15293991Y-10590174D01*
X15293991Y-10590174D02*
X15274943Y-10580650D01*
X15274943Y-10580650D02*
X15236848Y-10580650D01*
X15236848Y-10580650D02*
X15217801Y-10590174D01*
X15303515Y-10704460D02*
X15284467Y-10713984D01*
X15284467Y-10713984D02*
X15236848Y-10713984D01*
X15236848Y-10713984D02*
X15217801Y-10704460D01*
X15217801Y-10704460D02*
X15208277Y-10685412D01*
X15208277Y-10685412D02*
X15208277Y-10666365D01*
X15208277Y-10666365D02*
X15217801Y-10647317D01*
X15217801Y-10647317D02*
X15236848Y-10637793D01*
X15236848Y-10637793D02*
X15284467Y-10637793D01*
X15284467Y-10637793D02*
X15303515Y-10628270D01*
X15398753Y-10580650D02*
X15398753Y-10780650D01*
X15398753Y-10590174D02*
X15417801Y-10580650D01*
X15417801Y-10580650D02*
X15455896Y-10580650D01*
X15455896Y-10580650D02*
X15474943Y-10590174D01*
X15474943Y-10590174D02*
X15484467Y-10599698D01*
X15484467Y-10599698D02*
X15493991Y-10618746D01*
X15493991Y-10618746D02*
X15493991Y-10675889D01*
X15493991Y-10675889D02*
X15484467Y-10694936D01*
X15484467Y-10694936D02*
X15474943Y-10704460D01*
X15474943Y-10704460D02*
X15455896Y-10713984D01*
X15455896Y-10713984D02*
X15417801Y-10713984D01*
X15417801Y-10713984D02*
X15398753Y-10704460D01*
X15579705Y-10694936D02*
X15589229Y-10704460D01*
X15589229Y-10704460D02*
X15579705Y-10713984D01*
X15579705Y-10713984D02*
X15570182Y-10704460D01*
X15570182Y-10704460D02*
X15579705Y-10694936D01*
X15579705Y-10694936D02*
X15579705Y-10713984D01*
X15579705Y-10590174D02*
X15589229Y-10599698D01*
X15589229Y-10599698D02*
X15579705Y-10609222D01*
X15579705Y-10609222D02*
X15570182Y-10599698D01*
X15570182Y-10599698D02*
X15579705Y-10590174D01*
X15579705Y-10590174D02*
X15579705Y-10609222D01*
M02*
