%TF.GenerationSoftware,KiCad,Pcbnew,8.0.9*%
%TF.CreationDate,2026-01-01T18:04:26+09:00*%
%TF.ProjectId,Main,4d61696e-2e6b-4696-9361-645f70636258,rev?*%
%TF.SameCoordinates,Original*%
%TF.FileFunction,Drillmap*%
%TF.FilePolarity,Positive*%
%FSLAX45Y45*%
G04 Gerber Fmt 4.5, Leading zero omitted, Abs format (unit mm)*
G04 Created by KiCad (PCBNEW 8.0.9) date 2026-01-01 18:04:26*
%MOMM*%
%LPD*%
G01*
G04 APERTURE LIST*
%ADD10C,0.050000*%
%ADD11C,0.200000*%
%ADD12C,0.220000*%
G04 APERTURE END LIST*
D10*
X15700000Y-13000000D02*
X13300000Y-13000000D01*
X13000000Y-6800000D02*
G75*
G02*
X13300000Y-6500000I300000J0D01*
G01*
X16000000Y-12700000D02*
G75*
G02*
X15700000Y-13000000I-300000J0D01*
G01*
X15700000Y-6500000D02*
G75*
G02*
X16000000Y-6800000I0J-300000D01*
G01*
X13300000Y-13000000D02*
G75*
G02*
X13000000Y-12700000I0J300000D01*
G01*
X16000000Y-6800000D02*
X16000000Y-12700000D01*
X13000000Y-12700000D02*
X13000000Y-6800000D01*
X13300000Y-6500000D02*
X15700000Y-6500000D01*
D11*
D12*
X13240000Y-6740000D02*
X13460000Y-6960000D01*
X13460000Y-6740000D02*
X13240000Y-6960000D01*
X13240000Y-12540000D02*
X13460000Y-12760000D01*
X13460000Y-12540000D02*
X13240000Y-12760000D01*
X15540000Y-6740000D02*
X15760000Y-6960000D01*
X15760000Y-6740000D02*
X15540000Y-6960000D01*
X15540000Y-12540000D02*
X15760000Y-12760000D01*
X15760000Y-12540000D02*
X15540000Y-12760000D01*
D11*
X13258277Y-13313984D02*
X13258277Y-13113984D01*
X13258277Y-13113984D02*
X13305896Y-13113984D01*
X13305896Y-13113984D02*
X13334467Y-13123508D01*
X13334467Y-13123508D02*
X13353515Y-13142555D01*
X13353515Y-13142555D02*
X13363039Y-13161603D01*
X13363039Y-13161603D02*
X13372562Y-13199698D01*
X13372562Y-13199698D02*
X13372562Y-13228269D01*
X13372562Y-13228269D02*
X13363039Y-13266365D01*
X13363039Y-13266365D02*
X13353515Y-13285412D01*
X13353515Y-13285412D02*
X13334467Y-13304460D01*
X13334467Y-13304460D02*
X13305896Y-13313984D01*
X13305896Y-13313984D02*
X13258277Y-13313984D01*
X13458277Y-13313984D02*
X13458277Y-13180650D01*
X13458277Y-13218746D02*
X13467801Y-13199698D01*
X13467801Y-13199698D02*
X13477324Y-13190174D01*
X13477324Y-13190174D02*
X13496372Y-13180650D01*
X13496372Y-13180650D02*
X13515420Y-13180650D01*
X13582086Y-13313984D02*
X13582086Y-13180650D01*
X13582086Y-13113984D02*
X13572562Y-13123508D01*
X13572562Y-13123508D02*
X13582086Y-13133031D01*
X13582086Y-13133031D02*
X13591610Y-13123508D01*
X13591610Y-13123508D02*
X13582086Y-13113984D01*
X13582086Y-13113984D02*
X13582086Y-13133031D01*
X13705896Y-13313984D02*
X13686848Y-13304460D01*
X13686848Y-13304460D02*
X13677324Y-13285412D01*
X13677324Y-13285412D02*
X13677324Y-13113984D01*
X13810658Y-13313984D02*
X13791610Y-13304460D01*
X13791610Y-13304460D02*
X13782086Y-13285412D01*
X13782086Y-13285412D02*
X13782086Y-13113984D01*
X14039229Y-13313984D02*
X14039229Y-13113984D01*
X14039229Y-13113984D02*
X14105896Y-13256841D01*
X14105896Y-13256841D02*
X14172562Y-13113984D01*
X14172562Y-13113984D02*
X14172562Y-13313984D01*
X14353515Y-13313984D02*
X14353515Y-13209222D01*
X14353515Y-13209222D02*
X14343991Y-13190174D01*
X14343991Y-13190174D02*
X14324943Y-13180650D01*
X14324943Y-13180650D02*
X14286848Y-13180650D01*
X14286848Y-13180650D02*
X14267801Y-13190174D01*
X14353515Y-13304460D02*
X14334467Y-13313984D01*
X14334467Y-13313984D02*
X14286848Y-13313984D01*
X14286848Y-13313984D02*
X14267801Y-13304460D01*
X14267801Y-13304460D02*
X14258277Y-13285412D01*
X14258277Y-13285412D02*
X14258277Y-13266365D01*
X14258277Y-13266365D02*
X14267801Y-13247317D01*
X14267801Y-13247317D02*
X14286848Y-13237793D01*
X14286848Y-13237793D02*
X14334467Y-13237793D01*
X14334467Y-13237793D02*
X14353515Y-13228269D01*
X14448753Y-13180650D02*
X14448753Y-13380650D01*
X14448753Y-13190174D02*
X14467801Y-13180650D01*
X14467801Y-13180650D02*
X14505896Y-13180650D01*
X14505896Y-13180650D02*
X14524943Y-13190174D01*
X14524943Y-13190174D02*
X14534467Y-13199698D01*
X14534467Y-13199698D02*
X14543991Y-13218746D01*
X14543991Y-13218746D02*
X14543991Y-13275888D01*
X14543991Y-13275888D02*
X14534467Y-13294936D01*
X14534467Y-13294936D02*
X14524943Y-13304460D01*
X14524943Y-13304460D02*
X14505896Y-13313984D01*
X14505896Y-13313984D02*
X14467801Y-13313984D01*
X14467801Y-13313984D02*
X14448753Y-13304460D01*
X14629705Y-13294936D02*
X14639229Y-13304460D01*
X14639229Y-13304460D02*
X14629705Y-13313984D01*
X14629705Y-13313984D02*
X14620182Y-13304460D01*
X14620182Y-13304460D02*
X14629705Y-13294936D01*
X14629705Y-13294936D02*
X14629705Y-13313984D01*
X14629705Y-13190174D02*
X14639229Y-13199698D01*
X14639229Y-13199698D02*
X14629705Y-13209222D01*
X14629705Y-13209222D02*
X14620182Y-13199698D01*
X14620182Y-13199698D02*
X14629705Y-13190174D01*
X14629705Y-13190174D02*
X14629705Y-13209222D01*
X12797500Y-13542500D02*
X12997500Y-13742500D01*
X12997500Y-13542500D02*
X12797500Y-13742500D01*
X13248753Y-13553031D02*
X13258277Y-13543508D01*
X13258277Y-13543508D02*
X13277324Y-13533984D01*
X13277324Y-13533984D02*
X13324943Y-13533984D01*
X13324943Y-13533984D02*
X13343991Y-13543508D01*
X13343991Y-13543508D02*
X13353515Y-13553031D01*
X13353515Y-13553031D02*
X13363039Y-13572079D01*
X13363039Y-13572079D02*
X13363039Y-13591127D01*
X13363039Y-13591127D02*
X13353515Y-13619698D01*
X13353515Y-13619698D02*
X13239229Y-13733984D01*
X13239229Y-13733984D02*
X13363039Y-13733984D01*
X13448753Y-13714936D02*
X13458277Y-13724460D01*
X13458277Y-13724460D02*
X13448753Y-13733984D01*
X13448753Y-13733984D02*
X13439229Y-13724460D01*
X13439229Y-13724460D02*
X13448753Y-13714936D01*
X13448753Y-13714936D02*
X13448753Y-13733984D01*
X13534467Y-13553031D02*
X13543991Y-13543508D01*
X13543991Y-13543508D02*
X13563039Y-13533984D01*
X13563039Y-13533984D02*
X13610658Y-13533984D01*
X13610658Y-13533984D02*
X13629705Y-13543508D01*
X13629705Y-13543508D02*
X13639229Y-13553031D01*
X13639229Y-13553031D02*
X13648753Y-13572079D01*
X13648753Y-13572079D02*
X13648753Y-13591127D01*
X13648753Y-13591127D02*
X13639229Y-13619698D01*
X13639229Y-13619698D02*
X13524943Y-13733984D01*
X13524943Y-13733984D02*
X13648753Y-13733984D01*
X13772562Y-13533984D02*
X13791610Y-13533984D01*
X13791610Y-13533984D02*
X13810658Y-13543508D01*
X13810658Y-13543508D02*
X13820182Y-13553031D01*
X13820182Y-13553031D02*
X13829705Y-13572079D01*
X13829705Y-13572079D02*
X13839229Y-13610174D01*
X13839229Y-13610174D02*
X13839229Y-13657793D01*
X13839229Y-13657793D02*
X13829705Y-13695888D01*
X13829705Y-13695888D02*
X13820182Y-13714936D01*
X13820182Y-13714936D02*
X13810658Y-13724460D01*
X13810658Y-13724460D02*
X13791610Y-13733984D01*
X13791610Y-13733984D02*
X13772562Y-13733984D01*
X13772562Y-13733984D02*
X13753515Y-13724460D01*
X13753515Y-13724460D02*
X13743991Y-13714936D01*
X13743991Y-13714936D02*
X13734467Y-13695888D01*
X13734467Y-13695888D02*
X13724943Y-13657793D01*
X13724943Y-13657793D02*
X13724943Y-13610174D01*
X13724943Y-13610174D02*
X13734467Y-13572079D01*
X13734467Y-13572079D02*
X13743991Y-13553031D01*
X13743991Y-13553031D02*
X13753515Y-13543508D01*
X13753515Y-13543508D02*
X13772562Y-13533984D01*
X13963039Y-13533984D02*
X13982086Y-13533984D01*
X13982086Y-13533984D02*
X14001134Y-13543508D01*
X14001134Y-13543508D02*
X14010658Y-13553031D01*
X14010658Y-13553031D02*
X14020182Y-13572079D01*
X14020182Y-13572079D02*
X14029705Y-13610174D01*
X14029705Y-13610174D02*
X14029705Y-13657793D01*
X14029705Y-13657793D02*
X14020182Y-13695888D01*
X14020182Y-13695888D02*
X14010658Y-13714936D01*
X14010658Y-13714936D02*
X14001134Y-13724460D01*
X14001134Y-13724460D02*
X13982086Y-13733984D01*
X13982086Y-13733984D02*
X13963039Y-13733984D01*
X13963039Y-13733984D02*
X13943991Y-13724460D01*
X13943991Y-13724460D02*
X13934467Y-13714936D01*
X13934467Y-13714936D02*
X13924943Y-13695888D01*
X13924943Y-13695888D02*
X13915420Y-13657793D01*
X13915420Y-13657793D02*
X13915420Y-13610174D01*
X13915420Y-13610174D02*
X13924943Y-13572079D01*
X13924943Y-13572079D02*
X13934467Y-13553031D01*
X13934467Y-13553031D02*
X13943991Y-13543508D01*
X13943991Y-13543508D02*
X13963039Y-13533984D01*
X14115420Y-13733984D02*
X14115420Y-13600650D01*
X14115420Y-13619698D02*
X14124943Y-13610174D01*
X14124943Y-13610174D02*
X14143991Y-13600650D01*
X14143991Y-13600650D02*
X14172563Y-13600650D01*
X14172563Y-13600650D02*
X14191610Y-13610174D01*
X14191610Y-13610174D02*
X14201134Y-13629222D01*
X14201134Y-13629222D02*
X14201134Y-13733984D01*
X14201134Y-13629222D02*
X14210658Y-13610174D01*
X14210658Y-13610174D02*
X14229705Y-13600650D01*
X14229705Y-13600650D02*
X14258277Y-13600650D01*
X14258277Y-13600650D02*
X14277324Y-13610174D01*
X14277324Y-13610174D02*
X14286848Y-13629222D01*
X14286848Y-13629222D02*
X14286848Y-13733984D01*
X14382086Y-13733984D02*
X14382086Y-13600650D01*
X14382086Y-13619698D02*
X14391610Y-13610174D01*
X14391610Y-13610174D02*
X14410658Y-13600650D01*
X14410658Y-13600650D02*
X14439229Y-13600650D01*
X14439229Y-13600650D02*
X14458277Y-13610174D01*
X14458277Y-13610174D02*
X14467801Y-13629222D01*
X14467801Y-13629222D02*
X14467801Y-13733984D01*
X14467801Y-13629222D02*
X14477324Y-13610174D01*
X14477324Y-13610174D02*
X14496372Y-13600650D01*
X14496372Y-13600650D02*
X14524943Y-13600650D01*
X14524943Y-13600650D02*
X14543991Y-13610174D01*
X14543991Y-13610174D02*
X14553515Y-13629222D01*
X14553515Y-13629222D02*
X14553515Y-13733984D01*
X14943991Y-13524460D02*
X14772563Y-13781603D01*
X15201134Y-13533984D02*
X15220182Y-13533984D01*
X15220182Y-13533984D02*
X15239229Y-13543508D01*
X15239229Y-13543508D02*
X15248753Y-13553031D01*
X15248753Y-13553031D02*
X15258277Y-13572079D01*
X15258277Y-13572079D02*
X15267801Y-13610174D01*
X15267801Y-13610174D02*
X15267801Y-13657793D01*
X15267801Y-13657793D02*
X15258277Y-13695888D01*
X15258277Y-13695888D02*
X15248753Y-13714936D01*
X15248753Y-13714936D02*
X15239229Y-13724460D01*
X15239229Y-13724460D02*
X15220182Y-13733984D01*
X15220182Y-13733984D02*
X15201134Y-13733984D01*
X15201134Y-13733984D02*
X15182086Y-13724460D01*
X15182086Y-13724460D02*
X15172563Y-13714936D01*
X15172563Y-13714936D02*
X15163039Y-13695888D01*
X15163039Y-13695888D02*
X15153515Y-13657793D01*
X15153515Y-13657793D02*
X15153515Y-13610174D01*
X15153515Y-13610174D02*
X15163039Y-13572079D01*
X15163039Y-13572079D02*
X15172563Y-13553031D01*
X15172563Y-13553031D02*
X15182086Y-13543508D01*
X15182086Y-13543508D02*
X15201134Y-13533984D01*
X15353515Y-13714936D02*
X15363039Y-13724460D01*
X15363039Y-13724460D02*
X15353515Y-13733984D01*
X15353515Y-13733984D02*
X15343991Y-13724460D01*
X15343991Y-13724460D02*
X15353515Y-13714936D01*
X15353515Y-13714936D02*
X15353515Y-13733984D01*
X15486848Y-13533984D02*
X15505896Y-13533984D01*
X15505896Y-13533984D02*
X15524944Y-13543508D01*
X15524944Y-13543508D02*
X15534467Y-13553031D01*
X15534467Y-13553031D02*
X15543991Y-13572079D01*
X15543991Y-13572079D02*
X15553515Y-13610174D01*
X15553515Y-13610174D02*
X15553515Y-13657793D01*
X15553515Y-13657793D02*
X15543991Y-13695888D01*
X15543991Y-13695888D02*
X15534467Y-13714936D01*
X15534467Y-13714936D02*
X15524944Y-13724460D01*
X15524944Y-13724460D02*
X15505896Y-13733984D01*
X15505896Y-13733984D02*
X15486848Y-13733984D01*
X15486848Y-13733984D02*
X15467801Y-13724460D01*
X15467801Y-13724460D02*
X15458277Y-13714936D01*
X15458277Y-13714936D02*
X15448753Y-13695888D01*
X15448753Y-13695888D02*
X15439229Y-13657793D01*
X15439229Y-13657793D02*
X15439229Y-13610174D01*
X15439229Y-13610174D02*
X15448753Y-13572079D01*
X15448753Y-13572079D02*
X15458277Y-13553031D01*
X15458277Y-13553031D02*
X15467801Y-13543508D01*
X15467801Y-13543508D02*
X15486848Y-13533984D01*
X15667801Y-13619698D02*
X15648753Y-13610174D01*
X15648753Y-13610174D02*
X15639229Y-13600650D01*
X15639229Y-13600650D02*
X15629706Y-13581603D01*
X15629706Y-13581603D02*
X15629706Y-13572079D01*
X15629706Y-13572079D02*
X15639229Y-13553031D01*
X15639229Y-13553031D02*
X15648753Y-13543508D01*
X15648753Y-13543508D02*
X15667801Y-13533984D01*
X15667801Y-13533984D02*
X15705896Y-13533984D01*
X15705896Y-13533984D02*
X15724944Y-13543508D01*
X15724944Y-13543508D02*
X15734467Y-13553031D01*
X15734467Y-13553031D02*
X15743991Y-13572079D01*
X15743991Y-13572079D02*
X15743991Y-13581603D01*
X15743991Y-13581603D02*
X15734467Y-13600650D01*
X15734467Y-13600650D02*
X15724944Y-13610174D01*
X15724944Y-13610174D02*
X15705896Y-13619698D01*
X15705896Y-13619698D02*
X15667801Y-13619698D01*
X15667801Y-13619698D02*
X15648753Y-13629222D01*
X15648753Y-13629222D02*
X15639229Y-13638746D01*
X15639229Y-13638746D02*
X15629706Y-13657793D01*
X15629706Y-13657793D02*
X15629706Y-13695888D01*
X15629706Y-13695888D02*
X15639229Y-13714936D01*
X15639229Y-13714936D02*
X15648753Y-13724460D01*
X15648753Y-13724460D02*
X15667801Y-13733984D01*
X15667801Y-13733984D02*
X15705896Y-13733984D01*
X15705896Y-13733984D02*
X15724944Y-13724460D01*
X15724944Y-13724460D02*
X15734467Y-13714936D01*
X15734467Y-13714936D02*
X15743991Y-13695888D01*
X15743991Y-13695888D02*
X15743991Y-13657793D01*
X15743991Y-13657793D02*
X15734467Y-13638746D01*
X15734467Y-13638746D02*
X15724944Y-13629222D01*
X15724944Y-13629222D02*
X15705896Y-13619698D01*
X15915420Y-13533984D02*
X15877325Y-13533984D01*
X15877325Y-13533984D02*
X15858277Y-13543508D01*
X15858277Y-13543508D02*
X15848753Y-13553031D01*
X15848753Y-13553031D02*
X15829706Y-13581603D01*
X15829706Y-13581603D02*
X15820182Y-13619698D01*
X15820182Y-13619698D02*
X15820182Y-13695888D01*
X15820182Y-13695888D02*
X15829706Y-13714936D01*
X15829706Y-13714936D02*
X15839229Y-13724460D01*
X15839229Y-13724460D02*
X15858277Y-13733984D01*
X15858277Y-13733984D02*
X15896372Y-13733984D01*
X15896372Y-13733984D02*
X15915420Y-13724460D01*
X15915420Y-13724460D02*
X15924944Y-13714936D01*
X15924944Y-13714936D02*
X15934467Y-13695888D01*
X15934467Y-13695888D02*
X15934467Y-13648269D01*
X15934467Y-13648269D02*
X15924944Y-13629222D01*
X15924944Y-13629222D02*
X15915420Y-13619698D01*
X15915420Y-13619698D02*
X15896372Y-13610174D01*
X15896372Y-13610174D02*
X15858277Y-13610174D01*
X15858277Y-13610174D02*
X15839229Y-13619698D01*
X15839229Y-13619698D02*
X15829706Y-13629222D01*
X15829706Y-13629222D02*
X15820182Y-13648269D01*
X16105896Y-13533984D02*
X16067801Y-13533984D01*
X16067801Y-13533984D02*
X16048753Y-13543508D01*
X16048753Y-13543508D02*
X16039229Y-13553031D01*
X16039229Y-13553031D02*
X16020182Y-13581603D01*
X16020182Y-13581603D02*
X16010658Y-13619698D01*
X16010658Y-13619698D02*
X16010658Y-13695888D01*
X16010658Y-13695888D02*
X16020182Y-13714936D01*
X16020182Y-13714936D02*
X16029706Y-13724460D01*
X16029706Y-13724460D02*
X16048753Y-13733984D01*
X16048753Y-13733984D02*
X16086848Y-13733984D01*
X16086848Y-13733984D02*
X16105896Y-13724460D01*
X16105896Y-13724460D02*
X16115420Y-13714936D01*
X16115420Y-13714936D02*
X16124944Y-13695888D01*
X16124944Y-13695888D02*
X16124944Y-13648269D01*
X16124944Y-13648269D02*
X16115420Y-13629222D01*
X16115420Y-13629222D02*
X16105896Y-13619698D01*
X16105896Y-13619698D02*
X16086848Y-13610174D01*
X16086848Y-13610174D02*
X16048753Y-13610174D01*
X16048753Y-13610174D02*
X16029706Y-13619698D01*
X16029706Y-13619698D02*
X16020182Y-13629222D01*
X16020182Y-13629222D02*
X16010658Y-13648269D01*
X16201134Y-13533984D02*
X16201134Y-13572079D01*
X16277325Y-13533984D02*
X16277325Y-13572079D01*
X16572563Y-13810174D02*
X16563039Y-13800650D01*
X16563039Y-13800650D02*
X16543991Y-13772079D01*
X16543991Y-13772079D02*
X16534468Y-13753031D01*
X16534468Y-13753031D02*
X16524944Y-13724460D01*
X16524944Y-13724460D02*
X16515420Y-13676841D01*
X16515420Y-13676841D02*
X16515420Y-13638746D01*
X16515420Y-13638746D02*
X16524944Y-13591127D01*
X16524944Y-13591127D02*
X16534468Y-13562555D01*
X16534468Y-13562555D02*
X16543991Y-13543508D01*
X16543991Y-13543508D02*
X16563039Y-13514936D01*
X16563039Y-13514936D02*
X16572563Y-13505412D01*
X16734468Y-13600650D02*
X16734468Y-13733984D01*
X16686848Y-13524460D02*
X16639229Y-13667317D01*
X16639229Y-13667317D02*
X16763039Y-13667317D01*
X16991611Y-13733984D02*
X16991611Y-13533984D01*
X17077325Y-13733984D02*
X17077325Y-13629222D01*
X17077325Y-13629222D02*
X17067801Y-13610174D01*
X17067801Y-13610174D02*
X17048753Y-13600650D01*
X17048753Y-13600650D02*
X17020182Y-13600650D01*
X17020182Y-13600650D02*
X17001134Y-13610174D01*
X17001134Y-13610174D02*
X16991611Y-13619698D01*
X17201134Y-13733984D02*
X17182087Y-13724460D01*
X17182087Y-13724460D02*
X17172563Y-13714936D01*
X17172563Y-13714936D02*
X17163039Y-13695888D01*
X17163039Y-13695888D02*
X17163039Y-13638746D01*
X17163039Y-13638746D02*
X17172563Y-13619698D01*
X17172563Y-13619698D02*
X17182087Y-13610174D01*
X17182087Y-13610174D02*
X17201134Y-13600650D01*
X17201134Y-13600650D02*
X17229706Y-13600650D01*
X17229706Y-13600650D02*
X17248753Y-13610174D01*
X17248753Y-13610174D02*
X17258277Y-13619698D01*
X17258277Y-13619698D02*
X17267801Y-13638746D01*
X17267801Y-13638746D02*
X17267801Y-13695888D01*
X17267801Y-13695888D02*
X17258277Y-13714936D01*
X17258277Y-13714936D02*
X17248753Y-13724460D01*
X17248753Y-13724460D02*
X17229706Y-13733984D01*
X17229706Y-13733984D02*
X17201134Y-13733984D01*
X17382087Y-13733984D02*
X17363039Y-13724460D01*
X17363039Y-13724460D02*
X17353515Y-13705412D01*
X17353515Y-13705412D02*
X17353515Y-13533984D01*
X17534468Y-13724460D02*
X17515420Y-13733984D01*
X17515420Y-13733984D02*
X17477325Y-13733984D01*
X17477325Y-13733984D02*
X17458277Y-13724460D01*
X17458277Y-13724460D02*
X17448753Y-13705412D01*
X17448753Y-13705412D02*
X17448753Y-13629222D01*
X17448753Y-13629222D02*
X17458277Y-13610174D01*
X17458277Y-13610174D02*
X17477325Y-13600650D01*
X17477325Y-13600650D02*
X17515420Y-13600650D01*
X17515420Y-13600650D02*
X17534468Y-13610174D01*
X17534468Y-13610174D02*
X17543992Y-13629222D01*
X17543992Y-13629222D02*
X17543992Y-13648269D01*
X17543992Y-13648269D02*
X17448753Y-13667317D01*
X17620182Y-13724460D02*
X17639230Y-13733984D01*
X17639230Y-13733984D02*
X17677325Y-13733984D01*
X17677325Y-13733984D02*
X17696373Y-13724460D01*
X17696373Y-13724460D02*
X17705896Y-13705412D01*
X17705896Y-13705412D02*
X17705896Y-13695888D01*
X17705896Y-13695888D02*
X17696373Y-13676841D01*
X17696373Y-13676841D02*
X17677325Y-13667317D01*
X17677325Y-13667317D02*
X17648753Y-13667317D01*
X17648753Y-13667317D02*
X17629706Y-13657793D01*
X17629706Y-13657793D02*
X17620182Y-13638746D01*
X17620182Y-13638746D02*
X17620182Y-13629222D01*
X17620182Y-13629222D02*
X17629706Y-13610174D01*
X17629706Y-13610174D02*
X17648753Y-13600650D01*
X17648753Y-13600650D02*
X17677325Y-13600650D01*
X17677325Y-13600650D02*
X17696373Y-13610174D01*
X17772563Y-13810174D02*
X17782087Y-13800650D01*
X17782087Y-13800650D02*
X17801134Y-13772079D01*
X17801134Y-13772079D02*
X17810658Y-13753031D01*
X17810658Y-13753031D02*
X17820182Y-13724460D01*
X17820182Y-13724460D02*
X17829706Y-13676841D01*
X17829706Y-13676841D02*
X17829706Y-13638746D01*
X17829706Y-13638746D02*
X17820182Y-13591127D01*
X17820182Y-13591127D02*
X17810658Y-13562555D01*
X17810658Y-13562555D02*
X17801134Y-13543508D01*
X17801134Y-13543508D02*
X17782087Y-13514936D01*
X17782087Y-13514936D02*
X17772563Y-13505412D01*
X18134468Y-13810174D02*
X18124944Y-13800650D01*
X18124944Y-13800650D02*
X18105896Y-13772079D01*
X18105896Y-13772079D02*
X18096373Y-13753031D01*
X18096373Y-13753031D02*
X18086849Y-13724460D01*
X18086849Y-13724460D02*
X18077325Y-13676841D01*
X18077325Y-13676841D02*
X18077325Y-13638746D01*
X18077325Y-13638746D02*
X18086849Y-13591127D01*
X18086849Y-13591127D02*
X18096373Y-13562555D01*
X18096373Y-13562555D02*
X18105896Y-13543508D01*
X18105896Y-13543508D02*
X18124944Y-13514936D01*
X18124944Y-13514936D02*
X18134468Y-13505412D01*
X18210658Y-13600650D02*
X18210658Y-13733984D01*
X18210658Y-13619698D02*
X18220182Y-13610174D01*
X18220182Y-13610174D02*
X18239230Y-13600650D01*
X18239230Y-13600650D02*
X18267801Y-13600650D01*
X18267801Y-13600650D02*
X18286849Y-13610174D01*
X18286849Y-13610174D02*
X18296373Y-13629222D01*
X18296373Y-13629222D02*
X18296373Y-13733984D01*
X18420182Y-13733984D02*
X18401134Y-13724460D01*
X18401134Y-13724460D02*
X18391611Y-13714936D01*
X18391611Y-13714936D02*
X18382087Y-13695888D01*
X18382087Y-13695888D02*
X18382087Y-13638746D01*
X18382087Y-13638746D02*
X18391611Y-13619698D01*
X18391611Y-13619698D02*
X18401134Y-13610174D01*
X18401134Y-13610174D02*
X18420182Y-13600650D01*
X18420182Y-13600650D02*
X18448754Y-13600650D01*
X18448754Y-13600650D02*
X18467801Y-13610174D01*
X18467801Y-13610174D02*
X18477325Y-13619698D01*
X18477325Y-13619698D02*
X18486849Y-13638746D01*
X18486849Y-13638746D02*
X18486849Y-13695888D01*
X18486849Y-13695888D02*
X18477325Y-13714936D01*
X18477325Y-13714936D02*
X18467801Y-13724460D01*
X18467801Y-13724460D02*
X18448754Y-13733984D01*
X18448754Y-13733984D02*
X18420182Y-13733984D01*
X18543992Y-13600650D02*
X18620182Y-13600650D01*
X18572563Y-13533984D02*
X18572563Y-13705412D01*
X18572563Y-13705412D02*
X18582087Y-13724460D01*
X18582087Y-13724460D02*
X18601134Y-13733984D01*
X18601134Y-13733984D02*
X18620182Y-13733984D01*
X18839230Y-13600650D02*
X18839230Y-13800650D01*
X18839230Y-13610174D02*
X18858277Y-13600650D01*
X18858277Y-13600650D02*
X18896373Y-13600650D01*
X18896373Y-13600650D02*
X18915420Y-13610174D01*
X18915420Y-13610174D02*
X18924944Y-13619698D01*
X18924944Y-13619698D02*
X18934468Y-13638746D01*
X18934468Y-13638746D02*
X18934468Y-13695888D01*
X18934468Y-13695888D02*
X18924944Y-13714936D01*
X18924944Y-13714936D02*
X18915420Y-13724460D01*
X18915420Y-13724460D02*
X18896373Y-13733984D01*
X18896373Y-13733984D02*
X18858277Y-13733984D01*
X18858277Y-13733984D02*
X18839230Y-13724460D01*
X19048754Y-13733984D02*
X19029706Y-13724460D01*
X19029706Y-13724460D02*
X19020182Y-13705412D01*
X19020182Y-13705412D02*
X19020182Y-13533984D01*
X19210658Y-13733984D02*
X19210658Y-13629222D01*
X19210658Y-13629222D02*
X19201135Y-13610174D01*
X19201135Y-13610174D02*
X19182087Y-13600650D01*
X19182087Y-13600650D02*
X19143992Y-13600650D01*
X19143992Y-13600650D02*
X19124944Y-13610174D01*
X19210658Y-13724460D02*
X19191611Y-13733984D01*
X19191611Y-13733984D02*
X19143992Y-13733984D01*
X19143992Y-13733984D02*
X19124944Y-13724460D01*
X19124944Y-13724460D02*
X19115420Y-13705412D01*
X19115420Y-13705412D02*
X19115420Y-13686365D01*
X19115420Y-13686365D02*
X19124944Y-13667317D01*
X19124944Y-13667317D02*
X19143992Y-13657793D01*
X19143992Y-13657793D02*
X19191611Y-13657793D01*
X19191611Y-13657793D02*
X19210658Y-13648269D01*
X19277325Y-13600650D02*
X19353515Y-13600650D01*
X19305896Y-13533984D02*
X19305896Y-13705412D01*
X19305896Y-13705412D02*
X19315420Y-13724460D01*
X19315420Y-13724460D02*
X19334468Y-13733984D01*
X19334468Y-13733984D02*
X19353515Y-13733984D01*
X19496373Y-13724460D02*
X19477325Y-13733984D01*
X19477325Y-13733984D02*
X19439230Y-13733984D01*
X19439230Y-13733984D02*
X19420182Y-13724460D01*
X19420182Y-13724460D02*
X19410658Y-13705412D01*
X19410658Y-13705412D02*
X19410658Y-13629222D01*
X19410658Y-13629222D02*
X19420182Y-13610174D01*
X19420182Y-13610174D02*
X19439230Y-13600650D01*
X19439230Y-13600650D02*
X19477325Y-13600650D01*
X19477325Y-13600650D02*
X19496373Y-13610174D01*
X19496373Y-13610174D02*
X19505896Y-13629222D01*
X19505896Y-13629222D02*
X19505896Y-13648269D01*
X19505896Y-13648269D02*
X19410658Y-13667317D01*
X19677325Y-13733984D02*
X19677325Y-13533984D01*
X19677325Y-13724460D02*
X19658277Y-13733984D01*
X19658277Y-13733984D02*
X19620182Y-13733984D01*
X19620182Y-13733984D02*
X19601135Y-13724460D01*
X19601135Y-13724460D02*
X19591611Y-13714936D01*
X19591611Y-13714936D02*
X19582087Y-13695888D01*
X19582087Y-13695888D02*
X19582087Y-13638746D01*
X19582087Y-13638746D02*
X19591611Y-13619698D01*
X19591611Y-13619698D02*
X19601135Y-13610174D01*
X19601135Y-13610174D02*
X19620182Y-13600650D01*
X19620182Y-13600650D02*
X19658277Y-13600650D01*
X19658277Y-13600650D02*
X19677325Y-13610174D01*
X19753516Y-13810174D02*
X19763039Y-13800650D01*
X19763039Y-13800650D02*
X19782087Y-13772079D01*
X19782087Y-13772079D02*
X19791611Y-13753031D01*
X19791611Y-13753031D02*
X19801135Y-13724460D01*
X19801135Y-13724460D02*
X19810658Y-13676841D01*
X19810658Y-13676841D02*
X19810658Y-13638746D01*
X19810658Y-13638746D02*
X19801135Y-13591127D01*
X19801135Y-13591127D02*
X19791611Y-13562555D01*
X19791611Y-13562555D02*
X19782087Y-13543508D01*
X19782087Y-13543508D02*
X19763039Y-13514936D01*
X19763039Y-13514936D02*
X19753516Y-13505412D01*
M02*
