%TF.GenerationSoftware,KiCad,Pcbnew,8.0.9*%
%TF.CreationDate,2026-01-01T18:04:30+09:00*%
%TF.ProjectId,Main,4d61696e-2e6b-4696-9361-645f70636258,rev?*%
%TF.SameCoordinates,Original*%
%TF.FileFunction,Legend,Top*%
%TF.FilePolarity,Positive*%
%FSLAX46Y46*%
G04 Gerber Fmt 4.6, Leading zero omitted, Abs format (unit mm)*
G04 Created by KiCad (PCBNEW 8.0.9) date 2026-01-01 18:04:30*
%MOMM*%
%LPD*%
G01*
G04 APERTURE LIST*
%ADD10C,0.150000*%
%ADD11C,0.127000*%
G04 APERTURE END LIST*
D10*
X143208207Y-76432390D02*
X143132017Y-76394295D01*
X143132017Y-76394295D02*
X143017731Y-76394295D01*
X143017731Y-76394295D02*
X142903445Y-76432390D01*
X142903445Y-76432390D02*
X142827255Y-76508580D01*
X142827255Y-76508580D02*
X142789160Y-76584771D01*
X142789160Y-76584771D02*
X142751064Y-76737152D01*
X142751064Y-76737152D02*
X142751064Y-76851438D01*
X142751064Y-76851438D02*
X142789160Y-77003819D01*
X142789160Y-77003819D02*
X142827255Y-77080009D01*
X142827255Y-77080009D02*
X142903445Y-77156200D01*
X142903445Y-77156200D02*
X143017731Y-77194295D01*
X143017731Y-77194295D02*
X143093922Y-77194295D01*
X143093922Y-77194295D02*
X143208207Y-77156200D01*
X143208207Y-77156200D02*
X143246303Y-77118104D01*
X143246303Y-77118104D02*
X143246303Y-76851438D01*
X143246303Y-76851438D02*
X143093922Y-76851438D01*
X144084398Y-76394295D02*
X144351065Y-77194295D01*
X144351065Y-77194295D02*
X144617731Y-76394295D01*
X145379636Y-76394295D02*
X145836779Y-76394295D01*
X145608207Y-77194295D02*
X145608207Y-76394295D01*
X147170113Y-77194295D02*
X146903446Y-76813342D01*
X146712970Y-77194295D02*
X146712970Y-76394295D01*
X146712970Y-76394295D02*
X147017732Y-76394295D01*
X147017732Y-76394295D02*
X147093922Y-76432390D01*
X147093922Y-76432390D02*
X147132017Y-76470485D01*
X147132017Y-76470485D02*
X147170113Y-76546676D01*
X147170113Y-76546676D02*
X147170113Y-76660961D01*
X147170113Y-76660961D02*
X147132017Y-76737152D01*
X147132017Y-76737152D02*
X147093922Y-76775247D01*
X147093922Y-76775247D02*
X147017732Y-76813342D01*
X147017732Y-76813342D02*
X146712970Y-76813342D01*
X144408207Y-93432390D02*
X144332017Y-93394295D01*
X144332017Y-93394295D02*
X144217731Y-93394295D01*
X144217731Y-93394295D02*
X144103445Y-93432390D01*
X144103445Y-93432390D02*
X144027255Y-93508580D01*
X144027255Y-93508580D02*
X143989160Y-93584771D01*
X143989160Y-93584771D02*
X143951064Y-93737152D01*
X143951064Y-93737152D02*
X143951064Y-93851438D01*
X143951064Y-93851438D02*
X143989160Y-94003819D01*
X143989160Y-94003819D02*
X144027255Y-94080009D01*
X144027255Y-94080009D02*
X144103445Y-94156200D01*
X144103445Y-94156200D02*
X144217731Y-94194295D01*
X144217731Y-94194295D02*
X144293922Y-94194295D01*
X144293922Y-94194295D02*
X144408207Y-94156200D01*
X144408207Y-94156200D02*
X144446303Y-94118104D01*
X144446303Y-94118104D02*
X144446303Y-93851438D01*
X144446303Y-93851438D02*
X144293922Y-93851438D01*
X145284398Y-93394295D02*
X145551065Y-94194295D01*
X145551065Y-94194295D02*
X145817731Y-93394295D01*
X138985714Y-117454819D02*
X138985714Y-116454819D01*
X138985714Y-116454819D02*
X139223809Y-116454819D01*
X139223809Y-116454819D02*
X139366666Y-116502438D01*
X139366666Y-116502438D02*
X139461904Y-116597676D01*
X139461904Y-116597676D02*
X139509523Y-116692914D01*
X139509523Y-116692914D02*
X139557142Y-116883390D01*
X139557142Y-116883390D02*
X139557142Y-117026247D01*
X139557142Y-117026247D02*
X139509523Y-117216723D01*
X139509523Y-117216723D02*
X139461904Y-117311961D01*
X139461904Y-117311961D02*
X139366666Y-117407200D01*
X139366666Y-117407200D02*
X139223809Y-117454819D01*
X139223809Y-117454819D02*
X138985714Y-117454819D01*
X139985714Y-117454819D02*
X139985714Y-116788152D01*
X139985714Y-116454819D02*
X139938095Y-116502438D01*
X139938095Y-116502438D02*
X139985714Y-116550057D01*
X139985714Y-116550057D02*
X140033333Y-116502438D01*
X140033333Y-116502438D02*
X139985714Y-116454819D01*
X139985714Y-116454819D02*
X139985714Y-116550057D01*
X140414285Y-117407200D02*
X140509523Y-117454819D01*
X140509523Y-117454819D02*
X140699999Y-117454819D01*
X140699999Y-117454819D02*
X140795237Y-117407200D01*
X140795237Y-117407200D02*
X140842856Y-117311961D01*
X140842856Y-117311961D02*
X140842856Y-117264342D01*
X140842856Y-117264342D02*
X140795237Y-117169104D01*
X140795237Y-117169104D02*
X140699999Y-117121485D01*
X140699999Y-117121485D02*
X140557142Y-117121485D01*
X140557142Y-117121485D02*
X140461904Y-117073866D01*
X140461904Y-117073866D02*
X140414285Y-116978628D01*
X140414285Y-116978628D02*
X140414285Y-116931009D01*
X140414285Y-116931009D02*
X140461904Y-116835771D01*
X140461904Y-116835771D02*
X140557142Y-116788152D01*
X140557142Y-116788152D02*
X140699999Y-116788152D01*
X140699999Y-116788152D02*
X140795237Y-116835771D01*
X141271428Y-116788152D02*
X141271428Y-117788152D01*
X141271428Y-116835771D02*
X141366666Y-116788152D01*
X141366666Y-116788152D02*
X141557142Y-116788152D01*
X141557142Y-116788152D02*
X141652380Y-116835771D01*
X141652380Y-116835771D02*
X141699999Y-116883390D01*
X141699999Y-116883390D02*
X141747618Y-116978628D01*
X141747618Y-116978628D02*
X141747618Y-117264342D01*
X141747618Y-117264342D02*
X141699999Y-117359580D01*
X141699999Y-117359580D02*
X141652380Y-117407200D01*
X141652380Y-117407200D02*
X141557142Y-117454819D01*
X141557142Y-117454819D02*
X141366666Y-117454819D01*
X141366666Y-117454819D02*
X141271428Y-117407200D01*
X143366666Y-116788152D02*
X143366666Y-117454819D01*
X143128571Y-116407200D02*
X142890476Y-117121485D01*
X142890476Y-117121485D02*
X143509523Y-117121485D01*
X138985714Y-96454819D02*
X138985714Y-95454819D01*
X138985714Y-95454819D02*
X139223809Y-95454819D01*
X139223809Y-95454819D02*
X139366666Y-95502438D01*
X139366666Y-95502438D02*
X139461904Y-95597676D01*
X139461904Y-95597676D02*
X139509523Y-95692914D01*
X139509523Y-95692914D02*
X139557142Y-95883390D01*
X139557142Y-95883390D02*
X139557142Y-96026247D01*
X139557142Y-96026247D02*
X139509523Y-96216723D01*
X139509523Y-96216723D02*
X139461904Y-96311961D01*
X139461904Y-96311961D02*
X139366666Y-96407200D01*
X139366666Y-96407200D02*
X139223809Y-96454819D01*
X139223809Y-96454819D02*
X138985714Y-96454819D01*
X139985714Y-96454819D02*
X139985714Y-95788152D01*
X139985714Y-95454819D02*
X139938095Y-95502438D01*
X139938095Y-95502438D02*
X139985714Y-95550057D01*
X139985714Y-95550057D02*
X140033333Y-95502438D01*
X140033333Y-95502438D02*
X139985714Y-95454819D01*
X139985714Y-95454819D02*
X139985714Y-95550057D01*
X140414285Y-96407200D02*
X140509523Y-96454819D01*
X140509523Y-96454819D02*
X140699999Y-96454819D01*
X140699999Y-96454819D02*
X140795237Y-96407200D01*
X140795237Y-96407200D02*
X140842856Y-96311961D01*
X140842856Y-96311961D02*
X140842856Y-96264342D01*
X140842856Y-96264342D02*
X140795237Y-96169104D01*
X140795237Y-96169104D02*
X140699999Y-96121485D01*
X140699999Y-96121485D02*
X140557142Y-96121485D01*
X140557142Y-96121485D02*
X140461904Y-96073866D01*
X140461904Y-96073866D02*
X140414285Y-95978628D01*
X140414285Y-95978628D02*
X140414285Y-95931009D01*
X140414285Y-95931009D02*
X140461904Y-95835771D01*
X140461904Y-95835771D02*
X140557142Y-95788152D01*
X140557142Y-95788152D02*
X140699999Y-95788152D01*
X140699999Y-95788152D02*
X140795237Y-95835771D01*
X141271428Y-95788152D02*
X141271428Y-96788152D01*
X141271428Y-95835771D02*
X141366666Y-95788152D01*
X141366666Y-95788152D02*
X141557142Y-95788152D01*
X141557142Y-95788152D02*
X141652380Y-95835771D01*
X141652380Y-95835771D02*
X141699999Y-95883390D01*
X141699999Y-95883390D02*
X141747618Y-95978628D01*
X141747618Y-95978628D02*
X141747618Y-96264342D01*
X141747618Y-96264342D02*
X141699999Y-96359580D01*
X141699999Y-96359580D02*
X141652380Y-96407200D01*
X141652380Y-96407200D02*
X141557142Y-96454819D01*
X141557142Y-96454819D02*
X141366666Y-96454819D01*
X141366666Y-96454819D02*
X141271428Y-96407200D01*
X143461904Y-96454819D02*
X142890476Y-96454819D01*
X143176190Y-96454819D02*
X143176190Y-95454819D01*
X143176190Y-95454819D02*
X143080952Y-95597676D01*
X143080952Y-95597676D02*
X142985714Y-95692914D01*
X142985714Y-95692914D02*
X142890476Y-95740533D01*
X138985714Y-103454819D02*
X138985714Y-102454819D01*
X138985714Y-102454819D02*
X139223809Y-102454819D01*
X139223809Y-102454819D02*
X139366666Y-102502438D01*
X139366666Y-102502438D02*
X139461904Y-102597676D01*
X139461904Y-102597676D02*
X139509523Y-102692914D01*
X139509523Y-102692914D02*
X139557142Y-102883390D01*
X139557142Y-102883390D02*
X139557142Y-103026247D01*
X139557142Y-103026247D02*
X139509523Y-103216723D01*
X139509523Y-103216723D02*
X139461904Y-103311961D01*
X139461904Y-103311961D02*
X139366666Y-103407200D01*
X139366666Y-103407200D02*
X139223809Y-103454819D01*
X139223809Y-103454819D02*
X138985714Y-103454819D01*
X139985714Y-103454819D02*
X139985714Y-102788152D01*
X139985714Y-102454819D02*
X139938095Y-102502438D01*
X139938095Y-102502438D02*
X139985714Y-102550057D01*
X139985714Y-102550057D02*
X140033333Y-102502438D01*
X140033333Y-102502438D02*
X139985714Y-102454819D01*
X139985714Y-102454819D02*
X139985714Y-102550057D01*
X140414285Y-103407200D02*
X140509523Y-103454819D01*
X140509523Y-103454819D02*
X140699999Y-103454819D01*
X140699999Y-103454819D02*
X140795237Y-103407200D01*
X140795237Y-103407200D02*
X140842856Y-103311961D01*
X140842856Y-103311961D02*
X140842856Y-103264342D01*
X140842856Y-103264342D02*
X140795237Y-103169104D01*
X140795237Y-103169104D02*
X140699999Y-103121485D01*
X140699999Y-103121485D02*
X140557142Y-103121485D01*
X140557142Y-103121485D02*
X140461904Y-103073866D01*
X140461904Y-103073866D02*
X140414285Y-102978628D01*
X140414285Y-102978628D02*
X140414285Y-102931009D01*
X140414285Y-102931009D02*
X140461904Y-102835771D01*
X140461904Y-102835771D02*
X140557142Y-102788152D01*
X140557142Y-102788152D02*
X140699999Y-102788152D01*
X140699999Y-102788152D02*
X140795237Y-102835771D01*
X141271428Y-102788152D02*
X141271428Y-103788152D01*
X141271428Y-102835771D02*
X141366666Y-102788152D01*
X141366666Y-102788152D02*
X141557142Y-102788152D01*
X141557142Y-102788152D02*
X141652380Y-102835771D01*
X141652380Y-102835771D02*
X141699999Y-102883390D01*
X141699999Y-102883390D02*
X141747618Y-102978628D01*
X141747618Y-102978628D02*
X141747618Y-103264342D01*
X141747618Y-103264342D02*
X141699999Y-103359580D01*
X141699999Y-103359580D02*
X141652380Y-103407200D01*
X141652380Y-103407200D02*
X141557142Y-103454819D01*
X141557142Y-103454819D02*
X141366666Y-103454819D01*
X141366666Y-103454819D02*
X141271428Y-103407200D01*
X142890476Y-102550057D02*
X142938095Y-102502438D01*
X142938095Y-102502438D02*
X143033333Y-102454819D01*
X143033333Y-102454819D02*
X143271428Y-102454819D01*
X143271428Y-102454819D02*
X143366666Y-102502438D01*
X143366666Y-102502438D02*
X143414285Y-102550057D01*
X143414285Y-102550057D02*
X143461904Y-102645295D01*
X143461904Y-102645295D02*
X143461904Y-102740533D01*
X143461904Y-102740533D02*
X143414285Y-102883390D01*
X143414285Y-102883390D02*
X142842857Y-103454819D01*
X142842857Y-103454819D02*
X143461904Y-103454819D01*
X143271428Y-88654819D02*
X142795238Y-88654819D01*
X142795238Y-88654819D02*
X142747619Y-89131009D01*
X142747619Y-89131009D02*
X142795238Y-89083390D01*
X142795238Y-89083390D02*
X142890476Y-89035771D01*
X142890476Y-89035771D02*
X143128571Y-89035771D01*
X143128571Y-89035771D02*
X143223809Y-89083390D01*
X143223809Y-89083390D02*
X143271428Y-89131009D01*
X143271428Y-89131009D02*
X143319047Y-89226247D01*
X143319047Y-89226247D02*
X143319047Y-89464342D01*
X143319047Y-89464342D02*
X143271428Y-89559580D01*
X143271428Y-89559580D02*
X143223809Y-89607200D01*
X143223809Y-89607200D02*
X143128571Y-89654819D01*
X143128571Y-89654819D02*
X142890476Y-89654819D01*
X142890476Y-89654819D02*
X142795238Y-89607200D01*
X142795238Y-89607200D02*
X142747619Y-89559580D01*
X143604762Y-88654819D02*
X143938095Y-89654819D01*
X143938095Y-89654819D02*
X144271428Y-88654819D01*
X145842857Y-89654819D02*
X145366667Y-89654819D01*
X145366667Y-89654819D02*
X145366667Y-88654819D01*
X146176191Y-89131009D02*
X146509524Y-89131009D01*
X146652381Y-89654819D02*
X146176191Y-89654819D01*
X146176191Y-89654819D02*
X146176191Y-88654819D01*
X146176191Y-88654819D02*
X146652381Y-88654819D01*
X147080953Y-89654819D02*
X147080953Y-88654819D01*
X147080953Y-88654819D02*
X147319048Y-88654819D01*
X147319048Y-88654819D02*
X147461905Y-88702438D01*
X147461905Y-88702438D02*
X147557143Y-88797676D01*
X147557143Y-88797676D02*
X147604762Y-88892914D01*
X147604762Y-88892914D02*
X147652381Y-89083390D01*
X147652381Y-89083390D02*
X147652381Y-89226247D01*
X147652381Y-89226247D02*
X147604762Y-89416723D01*
X147604762Y-89416723D02*
X147557143Y-89511961D01*
X147557143Y-89511961D02*
X147461905Y-89607200D01*
X147461905Y-89607200D02*
X147319048Y-89654819D01*
X147319048Y-89654819D02*
X147080953Y-89654819D01*
X138985714Y-110454819D02*
X138985714Y-109454819D01*
X138985714Y-109454819D02*
X139223809Y-109454819D01*
X139223809Y-109454819D02*
X139366666Y-109502438D01*
X139366666Y-109502438D02*
X139461904Y-109597676D01*
X139461904Y-109597676D02*
X139509523Y-109692914D01*
X139509523Y-109692914D02*
X139557142Y-109883390D01*
X139557142Y-109883390D02*
X139557142Y-110026247D01*
X139557142Y-110026247D02*
X139509523Y-110216723D01*
X139509523Y-110216723D02*
X139461904Y-110311961D01*
X139461904Y-110311961D02*
X139366666Y-110407200D01*
X139366666Y-110407200D02*
X139223809Y-110454819D01*
X139223809Y-110454819D02*
X138985714Y-110454819D01*
X139985714Y-110454819D02*
X139985714Y-109788152D01*
X139985714Y-109454819D02*
X139938095Y-109502438D01*
X139938095Y-109502438D02*
X139985714Y-109550057D01*
X139985714Y-109550057D02*
X140033333Y-109502438D01*
X140033333Y-109502438D02*
X139985714Y-109454819D01*
X139985714Y-109454819D02*
X139985714Y-109550057D01*
X140414285Y-110407200D02*
X140509523Y-110454819D01*
X140509523Y-110454819D02*
X140699999Y-110454819D01*
X140699999Y-110454819D02*
X140795237Y-110407200D01*
X140795237Y-110407200D02*
X140842856Y-110311961D01*
X140842856Y-110311961D02*
X140842856Y-110264342D01*
X140842856Y-110264342D02*
X140795237Y-110169104D01*
X140795237Y-110169104D02*
X140699999Y-110121485D01*
X140699999Y-110121485D02*
X140557142Y-110121485D01*
X140557142Y-110121485D02*
X140461904Y-110073866D01*
X140461904Y-110073866D02*
X140414285Y-109978628D01*
X140414285Y-109978628D02*
X140414285Y-109931009D01*
X140414285Y-109931009D02*
X140461904Y-109835771D01*
X140461904Y-109835771D02*
X140557142Y-109788152D01*
X140557142Y-109788152D02*
X140699999Y-109788152D01*
X140699999Y-109788152D02*
X140795237Y-109835771D01*
X141271428Y-109788152D02*
X141271428Y-110788152D01*
X141271428Y-109835771D02*
X141366666Y-109788152D01*
X141366666Y-109788152D02*
X141557142Y-109788152D01*
X141557142Y-109788152D02*
X141652380Y-109835771D01*
X141652380Y-109835771D02*
X141699999Y-109883390D01*
X141699999Y-109883390D02*
X141747618Y-109978628D01*
X141747618Y-109978628D02*
X141747618Y-110264342D01*
X141747618Y-110264342D02*
X141699999Y-110359580D01*
X141699999Y-110359580D02*
X141652380Y-110407200D01*
X141652380Y-110407200D02*
X141557142Y-110454819D01*
X141557142Y-110454819D02*
X141366666Y-110454819D01*
X141366666Y-110454819D02*
X141271428Y-110407200D01*
X142842857Y-109454819D02*
X143461904Y-109454819D01*
X143461904Y-109454819D02*
X143128571Y-109835771D01*
X143128571Y-109835771D02*
X143271428Y-109835771D01*
X143271428Y-109835771D02*
X143366666Y-109883390D01*
X143366666Y-109883390D02*
X143414285Y-109931009D01*
X143414285Y-109931009D02*
X143461904Y-110026247D01*
X143461904Y-110026247D02*
X143461904Y-110264342D01*
X143461904Y-110264342D02*
X143414285Y-110359580D01*
X143414285Y-110359580D02*
X143366666Y-110407200D01*
X143366666Y-110407200D02*
X143271428Y-110454819D01*
X143271428Y-110454819D02*
X142985714Y-110454819D01*
X142985714Y-110454819D02*
X142890476Y-110407200D01*
X142890476Y-110407200D02*
X142842857Y-110359580D01*
X141842857Y-72131009D02*
X141509524Y-72131009D01*
X141509524Y-72654819D02*
X141509524Y-71654819D01*
X141509524Y-71654819D02*
X141985714Y-71654819D01*
X142938095Y-72559580D02*
X142890476Y-72607200D01*
X142890476Y-72607200D02*
X142747619Y-72654819D01*
X142747619Y-72654819D02*
X142652381Y-72654819D01*
X142652381Y-72654819D02*
X142509524Y-72607200D01*
X142509524Y-72607200D02*
X142414286Y-72511961D01*
X142414286Y-72511961D02*
X142366667Y-72416723D01*
X142366667Y-72416723D02*
X142319048Y-72226247D01*
X142319048Y-72226247D02*
X142319048Y-72083390D01*
X142319048Y-72083390D02*
X142366667Y-71892914D01*
X142366667Y-71892914D02*
X142414286Y-71797676D01*
X142414286Y-71797676D02*
X142509524Y-71702438D01*
X142509524Y-71702438D02*
X142652381Y-71654819D01*
X142652381Y-71654819D02*
X142747619Y-71654819D01*
X142747619Y-71654819D02*
X142890476Y-71702438D01*
X142890476Y-71702438D02*
X142938095Y-71750057D01*
D11*
%TO.C,J5*%
X138200000Y-119700000D02*
X138700000Y-120000000D01*
X138200000Y-120300000D02*
X138200000Y-119700000D01*
X138700000Y-120000000D02*
X138200000Y-120300000D01*
X139000000Y-117950000D02*
X150750000Y-117950000D01*
X139000000Y-121150000D02*
X139000000Y-117950000D01*
X150750000Y-117950000D02*
X150750000Y-121150000D01*
X150750000Y-121150000D02*
X139000000Y-121150000D01*
%TO.C,J2*%
X138200000Y-98700000D02*
X138700000Y-99000000D01*
X138200000Y-99300000D02*
X138200000Y-98700000D01*
X138700000Y-99000000D02*
X138200000Y-99300000D01*
X139000000Y-96950000D02*
X150750000Y-96950000D01*
X139000000Y-100150000D02*
X139000000Y-96950000D01*
X150750000Y-96950000D02*
X150750000Y-100150000D01*
X150750000Y-100150000D02*
X139000000Y-100150000D01*
%TO.C,J3*%
X138200000Y-105700000D02*
X138700000Y-106000000D01*
X138200000Y-106300000D02*
X138200000Y-105700000D01*
X138700000Y-106000000D02*
X138200000Y-106300000D01*
X139000000Y-103950000D02*
X150750000Y-103950000D01*
X139000000Y-107150000D02*
X139000000Y-103950000D01*
X150750000Y-103950000D02*
X150750000Y-107150000D01*
X150750000Y-107150000D02*
X139000000Y-107150000D01*
%TO.C,J7*%
X141950000Y-91700000D02*
X142450000Y-92000000D01*
X141950000Y-92300000D02*
X141950000Y-91700000D01*
X142450000Y-92000000D02*
X141950000Y-92300000D01*
X142750000Y-89950000D02*
X147000000Y-89950000D01*
X142750000Y-93150000D02*
X142750000Y-89950000D01*
X147000000Y-89950000D02*
X147000000Y-93150000D01*
X147000000Y-93150000D02*
X142750000Y-93150000D01*
%TO.C,J4*%
X138200000Y-112700000D02*
X138700000Y-113000000D01*
X138200000Y-113300000D02*
X138200000Y-112700000D01*
X138700000Y-113000000D02*
X138200000Y-113300000D01*
X139000000Y-110950000D02*
X150750000Y-110950000D01*
X139000000Y-114150000D02*
X139000000Y-110950000D01*
X150750000Y-110950000D02*
X150750000Y-114150000D01*
X150750000Y-114150000D02*
X139000000Y-114150000D01*
%TO.C,J6*%
X140700000Y-74700000D02*
X141200000Y-75000000D01*
X140700000Y-75300000D02*
X140700000Y-74700000D01*
X141200000Y-75000000D02*
X140700000Y-75300000D01*
X141500000Y-72950000D02*
X148250000Y-72950000D01*
X141500000Y-76150000D02*
X141500000Y-72950000D01*
X148250000Y-72950000D02*
X148250000Y-76150000D01*
X148250000Y-76150000D02*
X141500000Y-76150000D01*
%TD*%
M02*
