%TF.GenerationSoftware,KiCad,Pcbnew,8.0.9*%
%TF.CreationDate,2026-01-01T18:04:26+09:00*%
%TF.ProjectId,Main,4d61696e-2e6b-4696-9361-645f70636258,rev?*%
%TF.SameCoordinates,Original*%
%TF.FileFunction,Drillmap*%
%TF.FilePolarity,Positive*%
%FSLAX45Y45*%
G04 Gerber Fmt 4.5, Leading zero omitted, Abs format (unit mm)*
G04 Created by KiCad (PCBNEW 8.0.9) date 2026-01-01 18:04:26*
%MOMM*%
%LPD*%
G01*
G04 APERTURE LIST*
%ADD10C,0.050000*%
%ADD11C,0.200000*%
%ADD12C,0.100000*%
G04 APERTURE END LIST*
D10*
X15700000Y-13000000D02*
X13300000Y-13000000D01*
X13000000Y-6800000D02*
G75*
G02*
X13300000Y-6500000I300000J0D01*
G01*
X16000000Y-12700000D02*
G75*
G02*
X15700000Y-13000000I-300000J0D01*
G01*
X15700000Y-6500000D02*
G75*
G02*
X16000000Y-6800000I0J-300000D01*
G01*
X13300000Y-13000000D02*
G75*
G02*
X13000000Y-12700000I0J300000D01*
G01*
X16000000Y-6800000D02*
X16000000Y-12700000D01*
X13000000Y-12700000D02*
X13000000Y-6800000D01*
X13300000Y-6500000D02*
X15700000Y-6500000D01*
D11*
D12*
X14085000Y-9485000D02*
X14115000Y-9515000D01*
X14115000Y-9485000D02*
X14085000Y-9515000D01*
X15165000Y-7065000D02*
X15195000Y-7095000D01*
X15195000Y-7065000D02*
X15165000Y-7095000D01*
X14075000Y-9900000D02*
G75*
G02*
X14025000Y-9900000I-25000J0D01*
G01*
X14025000Y-9900000D02*
G75*
G02*
X14075000Y-9900000I25000J0D01*
G01*
X14075000Y-10600000D02*
G75*
G02*
X14025000Y-10600000I-25000J0D01*
G01*
X14025000Y-10600000D02*
G75*
G02*
X14075000Y-10600000I25000J0D01*
G01*
X14075000Y-11300000D02*
G75*
G02*
X14025000Y-11300000I-25000J0D01*
G01*
X14025000Y-11300000D02*
G75*
G02*
X14075000Y-11300000I25000J0D01*
G01*
X14075000Y-12000000D02*
G75*
G02*
X14025000Y-12000000I-25000J0D01*
G01*
X14025000Y-12000000D02*
G75*
G02*
X14075000Y-12000000I25000J0D01*
G01*
X14200000Y-9900000D02*
G75*
G02*
X14150000Y-9900000I-25000J0D01*
G01*
X14150000Y-9900000D02*
G75*
G02*
X14200000Y-9900000I25000J0D01*
G01*
X14200000Y-10600000D02*
G75*
G02*
X14150000Y-10600000I-25000J0D01*
G01*
X14150000Y-10600000D02*
G75*
G02*
X14200000Y-10600000I25000J0D01*
G01*
X14200000Y-11300000D02*
G75*
G02*
X14150000Y-11300000I-25000J0D01*
G01*
X14150000Y-11300000D02*
G75*
G02*
X14200000Y-11300000I25000J0D01*
G01*
X14200000Y-12000000D02*
G75*
G02*
X14150000Y-12000000I-25000J0D01*
G01*
X14150000Y-12000000D02*
G75*
G02*
X14200000Y-12000000I25000J0D01*
G01*
X14325000Y-7500000D02*
G75*
G02*
X14275000Y-7500000I-25000J0D01*
G01*
X14275000Y-7500000D02*
G75*
G02*
X14325000Y-7500000I25000J0D01*
G01*
X14325000Y-9900000D02*
G75*
G02*
X14275000Y-9900000I-25000J0D01*
G01*
X14275000Y-9900000D02*
G75*
G02*
X14325000Y-9900000I25000J0D01*
G01*
X14325000Y-10600000D02*
G75*
G02*
X14275000Y-10600000I-25000J0D01*
G01*
X14275000Y-10600000D02*
G75*
G02*
X14325000Y-10600000I25000J0D01*
G01*
X14325000Y-11300000D02*
G75*
G02*
X14275000Y-11300000I-25000J0D01*
G01*
X14275000Y-11300000D02*
G75*
G02*
X14325000Y-11300000I25000J0D01*
G01*
X14325000Y-12000000D02*
G75*
G02*
X14275000Y-12000000I-25000J0D01*
G01*
X14275000Y-12000000D02*
G75*
G02*
X14325000Y-12000000I25000J0D01*
G01*
X14450000Y-7500000D02*
G75*
G02*
X14400000Y-7500000I-25000J0D01*
G01*
X14400000Y-7500000D02*
G75*
G02*
X14450000Y-7500000I25000J0D01*
G01*
X14450000Y-9200000D02*
G75*
G02*
X14400000Y-9200000I-25000J0D01*
G01*
X14400000Y-9200000D02*
G75*
G02*
X14450000Y-9200000I25000J0D01*
G01*
X14450000Y-9900000D02*
G75*
G02*
X14400000Y-9900000I-25000J0D01*
G01*
X14400000Y-9900000D02*
G75*
G02*
X14450000Y-9900000I25000J0D01*
G01*
X14450000Y-10600000D02*
G75*
G02*
X14400000Y-10600000I-25000J0D01*
G01*
X14400000Y-10600000D02*
G75*
G02*
X14450000Y-10600000I25000J0D01*
G01*
X14450000Y-11300000D02*
G75*
G02*
X14400000Y-11300000I-25000J0D01*
G01*
X14400000Y-11300000D02*
G75*
G02*
X14450000Y-11300000I25000J0D01*
G01*
X14450000Y-12000000D02*
G75*
G02*
X14400000Y-12000000I-25000J0D01*
G01*
X14400000Y-12000000D02*
G75*
G02*
X14450000Y-12000000I25000J0D01*
G01*
X14575000Y-7500000D02*
G75*
G02*
X14525000Y-7500000I-25000J0D01*
G01*
X14525000Y-7500000D02*
G75*
G02*
X14575000Y-7500000I25000J0D01*
G01*
X14575000Y-9200000D02*
G75*
G02*
X14525000Y-9200000I-25000J0D01*
G01*
X14525000Y-9200000D02*
G75*
G02*
X14575000Y-9200000I25000J0D01*
G01*
X14575000Y-9900000D02*
G75*
G02*
X14525000Y-9900000I-25000J0D01*
G01*
X14525000Y-9900000D02*
G75*
G02*
X14575000Y-9900000I25000J0D01*
G01*
X14575000Y-10600000D02*
G75*
G02*
X14525000Y-10600000I-25000J0D01*
G01*
X14525000Y-10600000D02*
G75*
G02*
X14575000Y-10600000I25000J0D01*
G01*
X14575000Y-11300000D02*
G75*
G02*
X14525000Y-11300000I-25000J0D01*
G01*
X14525000Y-11300000D02*
G75*
G02*
X14575000Y-11300000I25000J0D01*
G01*
X14575000Y-12000000D02*
G75*
G02*
X14525000Y-12000000I-25000J0D01*
G01*
X14525000Y-12000000D02*
G75*
G02*
X14575000Y-12000000I25000J0D01*
G01*
X14700000Y-7500000D02*
G75*
G02*
X14650000Y-7500000I-25000J0D01*
G01*
X14650000Y-7500000D02*
G75*
G02*
X14700000Y-7500000I25000J0D01*
G01*
X14700000Y-9900000D02*
G75*
G02*
X14650000Y-9900000I-25000J0D01*
G01*
X14650000Y-9900000D02*
G75*
G02*
X14700000Y-9900000I25000J0D01*
G01*
X14700000Y-10600000D02*
G75*
G02*
X14650000Y-10600000I-25000J0D01*
G01*
X14650000Y-10600000D02*
G75*
G02*
X14700000Y-10600000I25000J0D01*
G01*
X14700000Y-11300000D02*
G75*
G02*
X14650000Y-11300000I-25000J0D01*
G01*
X14650000Y-11300000D02*
G75*
G02*
X14700000Y-11300000I25000J0D01*
G01*
X14700000Y-12000000D02*
G75*
G02*
X14650000Y-12000000I-25000J0D01*
G01*
X14650000Y-12000000D02*
G75*
G02*
X14700000Y-12000000I25000J0D01*
G01*
X14825000Y-9900000D02*
G75*
G02*
X14775000Y-9900000I-25000J0D01*
G01*
X14775000Y-9900000D02*
G75*
G02*
X14825000Y-9900000I25000J0D01*
G01*
X14825000Y-10600000D02*
G75*
G02*
X14775000Y-10600000I-25000J0D01*
G01*
X14775000Y-10600000D02*
G75*
G02*
X14825000Y-10600000I25000J0D01*
G01*
X14825000Y-11300000D02*
G75*
G02*
X14775000Y-11300000I-25000J0D01*
G01*
X14775000Y-11300000D02*
G75*
G02*
X14825000Y-11300000I25000J0D01*
G01*
X14825000Y-12000000D02*
G75*
G02*
X14775000Y-12000000I-25000J0D01*
G01*
X14775000Y-12000000D02*
G75*
G02*
X14825000Y-12000000I25000J0D01*
G01*
X14950000Y-9900000D02*
G75*
G02*
X14900000Y-9900000I-25000J0D01*
G01*
X14900000Y-9900000D02*
G75*
G02*
X14950000Y-9900000I25000J0D01*
G01*
X14950000Y-10600000D02*
G75*
G02*
X14900000Y-10600000I-25000J0D01*
G01*
X14900000Y-10600000D02*
G75*
G02*
X14950000Y-10600000I25000J0D01*
G01*
X14950000Y-11300000D02*
G75*
G02*
X14900000Y-11300000I-25000J0D01*
G01*
X14900000Y-11300000D02*
G75*
G02*
X14950000Y-11300000I25000J0D01*
G01*
X14950000Y-12000000D02*
G75*
G02*
X14900000Y-12000000I-25000J0D01*
G01*
X14900000Y-12000000D02*
G75*
G02*
X14950000Y-12000000I25000J0D01*
G01*
X15523000Y-7287000D02*
X15523000Y-7387000D01*
X15473000Y-7337000D02*
X15573000Y-7337000D01*
X15523000Y-7541000D02*
X15523000Y-7641000D01*
X15473000Y-7591000D02*
X15573000Y-7591000D01*
X15523000Y-7795000D02*
X15523000Y-7895000D01*
X15473000Y-7845000D02*
X15573000Y-7845000D01*
X15523000Y-8049000D02*
X15523000Y-8149000D01*
X15473000Y-8099000D02*
X15573000Y-8099000D01*
X15523000Y-8303000D02*
X15523000Y-8403000D01*
X15473000Y-8353000D02*
X15573000Y-8353000D01*
X15523000Y-8557000D02*
X15523000Y-8657000D01*
X15473000Y-8607000D02*
X15573000Y-8607000D01*
X15523000Y-8811000D02*
X15523000Y-8911000D01*
X15473000Y-8861000D02*
X15573000Y-8861000D01*
X15523000Y-9065000D02*
X15523000Y-9165000D01*
X15473000Y-9115000D02*
X15573000Y-9115000D01*
X15523000Y-9319000D02*
X15523000Y-9419000D01*
X15473000Y-9369000D02*
X15573000Y-9369000D01*
X15523000Y-9573000D02*
X15523000Y-9673000D01*
X15473000Y-9623000D02*
X15573000Y-9623000D01*
X15523000Y-9827000D02*
X15523000Y-9927000D01*
X15473000Y-9877000D02*
X15573000Y-9877000D01*
X15523000Y-10081000D02*
X15523000Y-10181000D01*
X15473000Y-10131000D02*
X15573000Y-10131000D01*
X15523000Y-10335000D02*
X15523000Y-10435000D01*
X15473000Y-10385000D02*
X15573000Y-10385000D01*
X15523000Y-10589000D02*
X15523000Y-10689000D01*
X15473000Y-10639000D02*
X15573000Y-10639000D01*
X15523000Y-10843000D02*
X15523000Y-10943000D01*
X15473000Y-10893000D02*
X15573000Y-10893000D01*
X15523000Y-11097000D02*
X15523000Y-11197000D01*
X15473000Y-11147000D02*
X15573000Y-11147000D01*
X15523000Y-11351000D02*
X15523000Y-11451000D01*
X15473000Y-11401000D02*
X15573000Y-11401000D01*
X15523000Y-11605000D02*
X15523000Y-11705000D01*
X15473000Y-11655000D02*
X15573000Y-11655000D01*
X15523000Y-11859000D02*
X15523000Y-11959000D01*
X15473000Y-11909000D02*
X15573000Y-11909000D01*
X15523000Y-12113000D02*
X15523000Y-12213000D01*
X15473000Y-12163000D02*
X15573000Y-12163000D01*
X15777000Y-7287000D02*
X15777000Y-7387000D01*
X15727000Y-7337000D02*
X15827000Y-7337000D01*
X15777000Y-7541000D02*
X15777000Y-7641000D01*
X15727000Y-7591000D02*
X15827000Y-7591000D01*
X15777000Y-7795000D02*
X15777000Y-7895000D01*
X15727000Y-7845000D02*
X15827000Y-7845000D01*
X15777000Y-8049000D02*
X15777000Y-8149000D01*
X15727000Y-8099000D02*
X15827000Y-8099000D01*
X15777000Y-8303000D02*
X15777000Y-8403000D01*
X15727000Y-8353000D02*
X15827000Y-8353000D01*
X15777000Y-8557000D02*
X15777000Y-8657000D01*
X15727000Y-8607000D02*
X15827000Y-8607000D01*
X15777000Y-8811000D02*
X15777000Y-8911000D01*
X15727000Y-8861000D02*
X15827000Y-8861000D01*
X15777000Y-9065000D02*
X15777000Y-9165000D01*
X15727000Y-9115000D02*
X15827000Y-9115000D01*
X15777000Y-9319000D02*
X15777000Y-9419000D01*
X15727000Y-9369000D02*
X15827000Y-9369000D01*
X15777000Y-9573000D02*
X15777000Y-9673000D01*
X15727000Y-9623000D02*
X15827000Y-9623000D01*
X15777000Y-9827000D02*
X15777000Y-9927000D01*
X15727000Y-9877000D02*
X15827000Y-9877000D01*
X15777000Y-10081000D02*
X15777000Y-10181000D01*
X15727000Y-10131000D02*
X15827000Y-10131000D01*
X15777000Y-10335000D02*
X15777000Y-10435000D01*
X15727000Y-10385000D02*
X15827000Y-10385000D01*
X15777000Y-10589000D02*
X15777000Y-10689000D01*
X15727000Y-10639000D02*
X15827000Y-10639000D01*
X15777000Y-10843000D02*
X15777000Y-10943000D01*
X15727000Y-10893000D02*
X15827000Y-10893000D01*
X15777000Y-11097000D02*
X15777000Y-11197000D01*
X15727000Y-11147000D02*
X15827000Y-11147000D01*
X15777000Y-11351000D02*
X15777000Y-11451000D01*
X15727000Y-11401000D02*
X15827000Y-11401000D01*
X15777000Y-11605000D02*
X15777000Y-11705000D01*
X15727000Y-11655000D02*
X15827000Y-11655000D01*
X15777000Y-11859000D02*
X15777000Y-11959000D01*
X15727000Y-11909000D02*
X15827000Y-11909000D01*
X15777000Y-12113000D02*
X15777000Y-12213000D01*
X15727000Y-12163000D02*
X15827000Y-12163000D01*
D11*
X13258277Y-13313984D02*
X13258277Y-13113984D01*
X13258277Y-13113984D02*
X13305896Y-13113984D01*
X13305896Y-13113984D02*
X13334467Y-13123508D01*
X13334467Y-13123508D02*
X13353515Y-13142555D01*
X13353515Y-13142555D02*
X13363039Y-13161603D01*
X13363039Y-13161603D02*
X13372562Y-13199698D01*
X13372562Y-13199698D02*
X13372562Y-13228269D01*
X13372562Y-13228269D02*
X13363039Y-13266365D01*
X13363039Y-13266365D02*
X13353515Y-13285412D01*
X13353515Y-13285412D02*
X13334467Y-13304460D01*
X13334467Y-13304460D02*
X13305896Y-13313984D01*
X13305896Y-13313984D02*
X13258277Y-13313984D01*
X13458277Y-13313984D02*
X13458277Y-13180650D01*
X13458277Y-13218746D02*
X13467801Y-13199698D01*
X13467801Y-13199698D02*
X13477324Y-13190174D01*
X13477324Y-13190174D02*
X13496372Y-13180650D01*
X13496372Y-13180650D02*
X13515420Y-13180650D01*
X13582086Y-13313984D02*
X13582086Y-13180650D01*
X13582086Y-13113984D02*
X13572562Y-13123508D01*
X13572562Y-13123508D02*
X13582086Y-13133031D01*
X13582086Y-13133031D02*
X13591610Y-13123508D01*
X13591610Y-13123508D02*
X13582086Y-13113984D01*
X13582086Y-13113984D02*
X13582086Y-13133031D01*
X13705896Y-13313984D02*
X13686848Y-13304460D01*
X13686848Y-13304460D02*
X13677324Y-13285412D01*
X13677324Y-13285412D02*
X13677324Y-13113984D01*
X13810658Y-13313984D02*
X13791610Y-13304460D01*
X13791610Y-13304460D02*
X13782086Y-13285412D01*
X13782086Y-13285412D02*
X13782086Y-13113984D01*
X14039229Y-13313984D02*
X14039229Y-13113984D01*
X14039229Y-13113984D02*
X14105896Y-13256841D01*
X14105896Y-13256841D02*
X14172562Y-13113984D01*
X14172562Y-13113984D02*
X14172562Y-13313984D01*
X14353515Y-13313984D02*
X14353515Y-13209222D01*
X14353515Y-13209222D02*
X14343991Y-13190174D01*
X14343991Y-13190174D02*
X14324943Y-13180650D01*
X14324943Y-13180650D02*
X14286848Y-13180650D01*
X14286848Y-13180650D02*
X14267801Y-13190174D01*
X14353515Y-13304460D02*
X14334467Y-13313984D01*
X14334467Y-13313984D02*
X14286848Y-13313984D01*
X14286848Y-13313984D02*
X14267801Y-13304460D01*
X14267801Y-13304460D02*
X14258277Y-13285412D01*
X14258277Y-13285412D02*
X14258277Y-13266365D01*
X14258277Y-13266365D02*
X14267801Y-13247317D01*
X14267801Y-13247317D02*
X14286848Y-13237793D01*
X14286848Y-13237793D02*
X14334467Y-13237793D01*
X14334467Y-13237793D02*
X14353515Y-13228269D01*
X14448753Y-13180650D02*
X14448753Y-13380650D01*
X14448753Y-13190174D02*
X14467801Y-13180650D01*
X14467801Y-13180650D02*
X14505896Y-13180650D01*
X14505896Y-13180650D02*
X14524943Y-13190174D01*
X14524943Y-13190174D02*
X14534467Y-13199698D01*
X14534467Y-13199698D02*
X14543991Y-13218746D01*
X14543991Y-13218746D02*
X14543991Y-13275888D01*
X14543991Y-13275888D02*
X14534467Y-13294936D01*
X14534467Y-13294936D02*
X14524943Y-13304460D01*
X14524943Y-13304460D02*
X14505896Y-13313984D01*
X14505896Y-13313984D02*
X14467801Y-13313984D01*
X14467801Y-13313984D02*
X14448753Y-13304460D01*
X14629705Y-13294936D02*
X14639229Y-13304460D01*
X14639229Y-13304460D02*
X14629705Y-13313984D01*
X14629705Y-13313984D02*
X14620182Y-13304460D01*
X14620182Y-13304460D02*
X14629705Y-13294936D01*
X14629705Y-13294936D02*
X14629705Y-13313984D01*
X14629705Y-13190174D02*
X14639229Y-13199698D01*
X14639229Y-13199698D02*
X14629705Y-13209222D01*
X14629705Y-13209222D02*
X14620182Y-13199698D01*
X14620182Y-13199698D02*
X14629705Y-13190174D01*
X14629705Y-13190174D02*
X14629705Y-13209222D01*
D12*
X12967500Y-13627500D02*
X12997500Y-13657500D01*
X12997500Y-13627500D02*
X12967500Y-13657500D01*
D11*
X13296372Y-13533984D02*
X13315420Y-13533984D01*
X13315420Y-13533984D02*
X13334467Y-13543508D01*
X13334467Y-13543508D02*
X13343991Y-13553031D01*
X13343991Y-13553031D02*
X13353515Y-13572079D01*
X13353515Y-13572079D02*
X13363039Y-13610174D01*
X13363039Y-13610174D02*
X13363039Y-13657793D01*
X13363039Y-13657793D02*
X13353515Y-13695888D01*
X13353515Y-13695888D02*
X13343991Y-13714936D01*
X13343991Y-13714936D02*
X13334467Y-13724460D01*
X13334467Y-13724460D02*
X13315420Y-13733984D01*
X13315420Y-13733984D02*
X13296372Y-13733984D01*
X13296372Y-13733984D02*
X13277324Y-13724460D01*
X13277324Y-13724460D02*
X13267801Y-13714936D01*
X13267801Y-13714936D02*
X13258277Y-13695888D01*
X13258277Y-13695888D02*
X13248753Y-13657793D01*
X13248753Y-13657793D02*
X13248753Y-13610174D01*
X13248753Y-13610174D02*
X13258277Y-13572079D01*
X13258277Y-13572079D02*
X13267801Y-13553031D01*
X13267801Y-13553031D02*
X13277324Y-13543508D01*
X13277324Y-13543508D02*
X13296372Y-13533984D01*
X13448753Y-13714936D02*
X13458277Y-13724460D01*
X13458277Y-13724460D02*
X13448753Y-13733984D01*
X13448753Y-13733984D02*
X13439229Y-13724460D01*
X13439229Y-13724460D02*
X13448753Y-13714936D01*
X13448753Y-13714936D02*
X13448753Y-13733984D01*
X13524943Y-13533984D02*
X13648753Y-13533984D01*
X13648753Y-13533984D02*
X13582086Y-13610174D01*
X13582086Y-13610174D02*
X13610658Y-13610174D01*
X13610658Y-13610174D02*
X13629705Y-13619698D01*
X13629705Y-13619698D02*
X13639229Y-13629222D01*
X13639229Y-13629222D02*
X13648753Y-13648269D01*
X13648753Y-13648269D02*
X13648753Y-13695888D01*
X13648753Y-13695888D02*
X13639229Y-13714936D01*
X13639229Y-13714936D02*
X13629705Y-13724460D01*
X13629705Y-13724460D02*
X13610658Y-13733984D01*
X13610658Y-13733984D02*
X13553515Y-13733984D01*
X13553515Y-13733984D02*
X13534467Y-13724460D01*
X13534467Y-13724460D02*
X13524943Y-13714936D01*
X13772562Y-13533984D02*
X13791610Y-13533984D01*
X13791610Y-13533984D02*
X13810658Y-13543508D01*
X13810658Y-13543508D02*
X13820182Y-13553031D01*
X13820182Y-13553031D02*
X13829705Y-13572079D01*
X13829705Y-13572079D02*
X13839229Y-13610174D01*
X13839229Y-13610174D02*
X13839229Y-13657793D01*
X13839229Y-13657793D02*
X13829705Y-13695888D01*
X13829705Y-13695888D02*
X13820182Y-13714936D01*
X13820182Y-13714936D02*
X13810658Y-13724460D01*
X13810658Y-13724460D02*
X13791610Y-13733984D01*
X13791610Y-13733984D02*
X13772562Y-13733984D01*
X13772562Y-13733984D02*
X13753515Y-13724460D01*
X13753515Y-13724460D02*
X13743991Y-13714936D01*
X13743991Y-13714936D02*
X13734467Y-13695888D01*
X13734467Y-13695888D02*
X13724943Y-13657793D01*
X13724943Y-13657793D02*
X13724943Y-13610174D01*
X13724943Y-13610174D02*
X13734467Y-13572079D01*
X13734467Y-13572079D02*
X13743991Y-13553031D01*
X13743991Y-13553031D02*
X13753515Y-13543508D01*
X13753515Y-13543508D02*
X13772562Y-13533984D01*
X13963039Y-13533984D02*
X13982086Y-13533984D01*
X13982086Y-13533984D02*
X14001134Y-13543508D01*
X14001134Y-13543508D02*
X14010658Y-13553031D01*
X14010658Y-13553031D02*
X14020182Y-13572079D01*
X14020182Y-13572079D02*
X14029705Y-13610174D01*
X14029705Y-13610174D02*
X14029705Y-13657793D01*
X14029705Y-13657793D02*
X14020182Y-13695888D01*
X14020182Y-13695888D02*
X14010658Y-13714936D01*
X14010658Y-13714936D02*
X14001134Y-13724460D01*
X14001134Y-13724460D02*
X13982086Y-13733984D01*
X13982086Y-13733984D02*
X13963039Y-13733984D01*
X13963039Y-13733984D02*
X13943991Y-13724460D01*
X13943991Y-13724460D02*
X13934467Y-13714936D01*
X13934467Y-13714936D02*
X13924943Y-13695888D01*
X13924943Y-13695888D02*
X13915420Y-13657793D01*
X13915420Y-13657793D02*
X13915420Y-13610174D01*
X13915420Y-13610174D02*
X13924943Y-13572079D01*
X13924943Y-13572079D02*
X13934467Y-13553031D01*
X13934467Y-13553031D02*
X13943991Y-13543508D01*
X13943991Y-13543508D02*
X13963039Y-13533984D01*
X14115420Y-13733984D02*
X14115420Y-13600650D01*
X14115420Y-13619698D02*
X14124943Y-13610174D01*
X14124943Y-13610174D02*
X14143991Y-13600650D01*
X14143991Y-13600650D02*
X14172563Y-13600650D01*
X14172563Y-13600650D02*
X14191610Y-13610174D01*
X14191610Y-13610174D02*
X14201134Y-13629222D01*
X14201134Y-13629222D02*
X14201134Y-13733984D01*
X14201134Y-13629222D02*
X14210658Y-13610174D01*
X14210658Y-13610174D02*
X14229705Y-13600650D01*
X14229705Y-13600650D02*
X14258277Y-13600650D01*
X14258277Y-13600650D02*
X14277324Y-13610174D01*
X14277324Y-13610174D02*
X14286848Y-13629222D01*
X14286848Y-13629222D02*
X14286848Y-13733984D01*
X14382086Y-13733984D02*
X14382086Y-13600650D01*
X14382086Y-13619698D02*
X14391610Y-13610174D01*
X14391610Y-13610174D02*
X14410658Y-13600650D01*
X14410658Y-13600650D02*
X14439229Y-13600650D01*
X14439229Y-13600650D02*
X14458277Y-13610174D01*
X14458277Y-13610174D02*
X14467801Y-13629222D01*
X14467801Y-13629222D02*
X14467801Y-13733984D01*
X14467801Y-13629222D02*
X14477324Y-13610174D01*
X14477324Y-13610174D02*
X14496372Y-13600650D01*
X14496372Y-13600650D02*
X14524943Y-13600650D01*
X14524943Y-13600650D02*
X14543991Y-13610174D01*
X14543991Y-13610174D02*
X14553515Y-13629222D01*
X14553515Y-13629222D02*
X14553515Y-13733984D01*
X14943991Y-13524460D02*
X14772563Y-13781603D01*
X15201134Y-13533984D02*
X15220182Y-13533984D01*
X15220182Y-13533984D02*
X15239229Y-13543508D01*
X15239229Y-13543508D02*
X15248753Y-13553031D01*
X15248753Y-13553031D02*
X15258277Y-13572079D01*
X15258277Y-13572079D02*
X15267801Y-13610174D01*
X15267801Y-13610174D02*
X15267801Y-13657793D01*
X15267801Y-13657793D02*
X15258277Y-13695888D01*
X15258277Y-13695888D02*
X15248753Y-13714936D01*
X15248753Y-13714936D02*
X15239229Y-13724460D01*
X15239229Y-13724460D02*
X15220182Y-13733984D01*
X15220182Y-13733984D02*
X15201134Y-13733984D01*
X15201134Y-13733984D02*
X15182086Y-13724460D01*
X15182086Y-13724460D02*
X15172563Y-13714936D01*
X15172563Y-13714936D02*
X15163039Y-13695888D01*
X15163039Y-13695888D02*
X15153515Y-13657793D01*
X15153515Y-13657793D02*
X15153515Y-13610174D01*
X15153515Y-13610174D02*
X15163039Y-13572079D01*
X15163039Y-13572079D02*
X15172563Y-13553031D01*
X15172563Y-13553031D02*
X15182086Y-13543508D01*
X15182086Y-13543508D02*
X15201134Y-13533984D01*
X15353515Y-13714936D02*
X15363039Y-13724460D01*
X15363039Y-13724460D02*
X15353515Y-13733984D01*
X15353515Y-13733984D02*
X15343991Y-13724460D01*
X15343991Y-13724460D02*
X15353515Y-13714936D01*
X15353515Y-13714936D02*
X15353515Y-13733984D01*
X15486848Y-13533984D02*
X15505896Y-13533984D01*
X15505896Y-13533984D02*
X15524944Y-13543508D01*
X15524944Y-13543508D02*
X15534467Y-13553031D01*
X15534467Y-13553031D02*
X15543991Y-13572079D01*
X15543991Y-13572079D02*
X15553515Y-13610174D01*
X15553515Y-13610174D02*
X15553515Y-13657793D01*
X15553515Y-13657793D02*
X15543991Y-13695888D01*
X15543991Y-13695888D02*
X15534467Y-13714936D01*
X15534467Y-13714936D02*
X15524944Y-13724460D01*
X15524944Y-13724460D02*
X15505896Y-13733984D01*
X15505896Y-13733984D02*
X15486848Y-13733984D01*
X15486848Y-13733984D02*
X15467801Y-13724460D01*
X15467801Y-13724460D02*
X15458277Y-13714936D01*
X15458277Y-13714936D02*
X15448753Y-13695888D01*
X15448753Y-13695888D02*
X15439229Y-13657793D01*
X15439229Y-13657793D02*
X15439229Y-13610174D01*
X15439229Y-13610174D02*
X15448753Y-13572079D01*
X15448753Y-13572079D02*
X15458277Y-13553031D01*
X15458277Y-13553031D02*
X15467801Y-13543508D01*
X15467801Y-13543508D02*
X15486848Y-13533984D01*
X15743991Y-13733984D02*
X15629706Y-13733984D01*
X15686848Y-13733984D02*
X15686848Y-13533984D01*
X15686848Y-13533984D02*
X15667801Y-13562555D01*
X15667801Y-13562555D02*
X15648753Y-13581603D01*
X15648753Y-13581603D02*
X15629706Y-13591127D01*
X15934467Y-13733984D02*
X15820182Y-13733984D01*
X15877325Y-13733984D02*
X15877325Y-13533984D01*
X15877325Y-13533984D02*
X15858277Y-13562555D01*
X15858277Y-13562555D02*
X15839229Y-13581603D01*
X15839229Y-13581603D02*
X15820182Y-13591127D01*
X16048753Y-13619698D02*
X16029706Y-13610174D01*
X16029706Y-13610174D02*
X16020182Y-13600650D01*
X16020182Y-13600650D02*
X16010658Y-13581603D01*
X16010658Y-13581603D02*
X16010658Y-13572079D01*
X16010658Y-13572079D02*
X16020182Y-13553031D01*
X16020182Y-13553031D02*
X16029706Y-13543508D01*
X16029706Y-13543508D02*
X16048753Y-13533984D01*
X16048753Y-13533984D02*
X16086848Y-13533984D01*
X16086848Y-13533984D02*
X16105896Y-13543508D01*
X16105896Y-13543508D02*
X16115420Y-13553031D01*
X16115420Y-13553031D02*
X16124944Y-13572079D01*
X16124944Y-13572079D02*
X16124944Y-13581603D01*
X16124944Y-13581603D02*
X16115420Y-13600650D01*
X16115420Y-13600650D02*
X16105896Y-13610174D01*
X16105896Y-13610174D02*
X16086848Y-13619698D01*
X16086848Y-13619698D02*
X16048753Y-13619698D01*
X16048753Y-13619698D02*
X16029706Y-13629222D01*
X16029706Y-13629222D02*
X16020182Y-13638746D01*
X16020182Y-13638746D02*
X16010658Y-13657793D01*
X16010658Y-13657793D02*
X16010658Y-13695888D01*
X16010658Y-13695888D02*
X16020182Y-13714936D01*
X16020182Y-13714936D02*
X16029706Y-13724460D01*
X16029706Y-13724460D02*
X16048753Y-13733984D01*
X16048753Y-13733984D02*
X16086848Y-13733984D01*
X16086848Y-13733984D02*
X16105896Y-13724460D01*
X16105896Y-13724460D02*
X16115420Y-13714936D01*
X16115420Y-13714936D02*
X16124944Y-13695888D01*
X16124944Y-13695888D02*
X16124944Y-13657793D01*
X16124944Y-13657793D02*
X16115420Y-13638746D01*
X16115420Y-13638746D02*
X16105896Y-13629222D01*
X16105896Y-13629222D02*
X16086848Y-13619698D01*
X16201134Y-13533984D02*
X16201134Y-13572079D01*
X16277325Y-13533984D02*
X16277325Y-13572079D01*
X16572563Y-13810174D02*
X16563039Y-13800650D01*
X16563039Y-13800650D02*
X16543991Y-13772079D01*
X16543991Y-13772079D02*
X16534468Y-13753031D01*
X16534468Y-13753031D02*
X16524944Y-13724460D01*
X16524944Y-13724460D02*
X16515420Y-13676841D01*
X16515420Y-13676841D02*
X16515420Y-13638746D01*
X16515420Y-13638746D02*
X16524944Y-13591127D01*
X16524944Y-13591127D02*
X16534468Y-13562555D01*
X16534468Y-13562555D02*
X16543991Y-13543508D01*
X16543991Y-13543508D02*
X16563039Y-13514936D01*
X16563039Y-13514936D02*
X16572563Y-13505412D01*
X16639229Y-13553031D02*
X16648753Y-13543508D01*
X16648753Y-13543508D02*
X16667801Y-13533984D01*
X16667801Y-13533984D02*
X16715420Y-13533984D01*
X16715420Y-13533984D02*
X16734468Y-13543508D01*
X16734468Y-13543508D02*
X16743991Y-13553031D01*
X16743991Y-13553031D02*
X16753515Y-13572079D01*
X16753515Y-13572079D02*
X16753515Y-13591127D01*
X16753515Y-13591127D02*
X16743991Y-13619698D01*
X16743991Y-13619698D02*
X16629706Y-13733984D01*
X16629706Y-13733984D02*
X16753515Y-13733984D01*
X16991611Y-13733984D02*
X16991611Y-13533984D01*
X17077325Y-13733984D02*
X17077325Y-13629222D01*
X17077325Y-13629222D02*
X17067801Y-13610174D01*
X17067801Y-13610174D02*
X17048753Y-13600650D01*
X17048753Y-13600650D02*
X17020182Y-13600650D01*
X17020182Y-13600650D02*
X17001134Y-13610174D01*
X17001134Y-13610174D02*
X16991611Y-13619698D01*
X17201134Y-13733984D02*
X17182087Y-13724460D01*
X17182087Y-13724460D02*
X17172563Y-13714936D01*
X17172563Y-13714936D02*
X17163039Y-13695888D01*
X17163039Y-13695888D02*
X17163039Y-13638746D01*
X17163039Y-13638746D02*
X17172563Y-13619698D01*
X17172563Y-13619698D02*
X17182087Y-13610174D01*
X17182087Y-13610174D02*
X17201134Y-13600650D01*
X17201134Y-13600650D02*
X17229706Y-13600650D01*
X17229706Y-13600650D02*
X17248753Y-13610174D01*
X17248753Y-13610174D02*
X17258277Y-13619698D01*
X17258277Y-13619698D02*
X17267801Y-13638746D01*
X17267801Y-13638746D02*
X17267801Y-13695888D01*
X17267801Y-13695888D02*
X17258277Y-13714936D01*
X17258277Y-13714936D02*
X17248753Y-13724460D01*
X17248753Y-13724460D02*
X17229706Y-13733984D01*
X17229706Y-13733984D02*
X17201134Y-13733984D01*
X17382087Y-13733984D02*
X17363039Y-13724460D01*
X17363039Y-13724460D02*
X17353515Y-13705412D01*
X17353515Y-13705412D02*
X17353515Y-13533984D01*
X17534468Y-13724460D02*
X17515420Y-13733984D01*
X17515420Y-13733984D02*
X17477325Y-13733984D01*
X17477325Y-13733984D02*
X17458277Y-13724460D01*
X17458277Y-13724460D02*
X17448753Y-13705412D01*
X17448753Y-13705412D02*
X17448753Y-13629222D01*
X17448753Y-13629222D02*
X17458277Y-13610174D01*
X17458277Y-13610174D02*
X17477325Y-13600650D01*
X17477325Y-13600650D02*
X17515420Y-13600650D01*
X17515420Y-13600650D02*
X17534468Y-13610174D01*
X17534468Y-13610174D02*
X17543992Y-13629222D01*
X17543992Y-13629222D02*
X17543992Y-13648269D01*
X17543992Y-13648269D02*
X17448753Y-13667317D01*
X17620182Y-13724460D02*
X17639230Y-13733984D01*
X17639230Y-13733984D02*
X17677325Y-13733984D01*
X17677325Y-13733984D02*
X17696373Y-13724460D01*
X17696373Y-13724460D02*
X17705896Y-13705412D01*
X17705896Y-13705412D02*
X17705896Y-13695888D01*
X17705896Y-13695888D02*
X17696373Y-13676841D01*
X17696373Y-13676841D02*
X17677325Y-13667317D01*
X17677325Y-13667317D02*
X17648753Y-13667317D01*
X17648753Y-13667317D02*
X17629706Y-13657793D01*
X17629706Y-13657793D02*
X17620182Y-13638746D01*
X17620182Y-13638746D02*
X17620182Y-13629222D01*
X17620182Y-13629222D02*
X17629706Y-13610174D01*
X17629706Y-13610174D02*
X17648753Y-13600650D01*
X17648753Y-13600650D02*
X17677325Y-13600650D01*
X17677325Y-13600650D02*
X17696373Y-13610174D01*
X17772563Y-13810174D02*
X17782087Y-13800650D01*
X17782087Y-13800650D02*
X17801134Y-13772079D01*
X17801134Y-13772079D02*
X17810658Y-13753031D01*
X17810658Y-13753031D02*
X17820182Y-13724460D01*
X17820182Y-13724460D02*
X17829706Y-13676841D01*
X17829706Y-13676841D02*
X17829706Y-13638746D01*
X17829706Y-13638746D02*
X17820182Y-13591127D01*
X17820182Y-13591127D02*
X17810658Y-13562555D01*
X17810658Y-13562555D02*
X17801134Y-13543508D01*
X17801134Y-13543508D02*
X17782087Y-13514936D01*
X17782087Y-13514936D02*
X17772563Y-13505412D01*
D12*
X12997500Y-13906500D02*
G75*
G02*
X12947500Y-13906500I-25000J0D01*
G01*
X12947500Y-13906500D02*
G75*
G02*
X12997500Y-13906500I25000J0D01*
G01*
D11*
X13296372Y-13797984D02*
X13315420Y-13797984D01*
X13315420Y-13797984D02*
X13334467Y-13807508D01*
X13334467Y-13807508D02*
X13343991Y-13817031D01*
X13343991Y-13817031D02*
X13353515Y-13836079D01*
X13353515Y-13836079D02*
X13363039Y-13874174D01*
X13363039Y-13874174D02*
X13363039Y-13921793D01*
X13363039Y-13921793D02*
X13353515Y-13959888D01*
X13353515Y-13959888D02*
X13343991Y-13978936D01*
X13343991Y-13978936D02*
X13334467Y-13988460D01*
X13334467Y-13988460D02*
X13315420Y-13997984D01*
X13315420Y-13997984D02*
X13296372Y-13997984D01*
X13296372Y-13997984D02*
X13277324Y-13988460D01*
X13277324Y-13988460D02*
X13267801Y-13978936D01*
X13267801Y-13978936D02*
X13258277Y-13959888D01*
X13258277Y-13959888D02*
X13248753Y-13921793D01*
X13248753Y-13921793D02*
X13248753Y-13874174D01*
X13248753Y-13874174D02*
X13258277Y-13836079D01*
X13258277Y-13836079D02*
X13267801Y-13817031D01*
X13267801Y-13817031D02*
X13277324Y-13807508D01*
X13277324Y-13807508D02*
X13296372Y-13797984D01*
X13448753Y-13978936D02*
X13458277Y-13988460D01*
X13458277Y-13988460D02*
X13448753Y-13997984D01*
X13448753Y-13997984D02*
X13439229Y-13988460D01*
X13439229Y-13988460D02*
X13448753Y-13978936D01*
X13448753Y-13978936D02*
X13448753Y-13997984D01*
X13639229Y-13797984D02*
X13543991Y-13797984D01*
X13543991Y-13797984D02*
X13534467Y-13893222D01*
X13534467Y-13893222D02*
X13543991Y-13883698D01*
X13543991Y-13883698D02*
X13563039Y-13874174D01*
X13563039Y-13874174D02*
X13610658Y-13874174D01*
X13610658Y-13874174D02*
X13629705Y-13883698D01*
X13629705Y-13883698D02*
X13639229Y-13893222D01*
X13639229Y-13893222D02*
X13648753Y-13912269D01*
X13648753Y-13912269D02*
X13648753Y-13959888D01*
X13648753Y-13959888D02*
X13639229Y-13978936D01*
X13639229Y-13978936D02*
X13629705Y-13988460D01*
X13629705Y-13988460D02*
X13610658Y-13997984D01*
X13610658Y-13997984D02*
X13563039Y-13997984D01*
X13563039Y-13997984D02*
X13543991Y-13988460D01*
X13543991Y-13988460D02*
X13534467Y-13978936D01*
X13772562Y-13797984D02*
X13791610Y-13797984D01*
X13791610Y-13797984D02*
X13810658Y-13807508D01*
X13810658Y-13807508D02*
X13820182Y-13817031D01*
X13820182Y-13817031D02*
X13829705Y-13836079D01*
X13829705Y-13836079D02*
X13839229Y-13874174D01*
X13839229Y-13874174D02*
X13839229Y-13921793D01*
X13839229Y-13921793D02*
X13829705Y-13959888D01*
X13829705Y-13959888D02*
X13820182Y-13978936D01*
X13820182Y-13978936D02*
X13810658Y-13988460D01*
X13810658Y-13988460D02*
X13791610Y-13997984D01*
X13791610Y-13997984D02*
X13772562Y-13997984D01*
X13772562Y-13997984D02*
X13753515Y-13988460D01*
X13753515Y-13988460D02*
X13743991Y-13978936D01*
X13743991Y-13978936D02*
X13734467Y-13959888D01*
X13734467Y-13959888D02*
X13724943Y-13921793D01*
X13724943Y-13921793D02*
X13724943Y-13874174D01*
X13724943Y-13874174D02*
X13734467Y-13836079D01*
X13734467Y-13836079D02*
X13743991Y-13817031D01*
X13743991Y-13817031D02*
X13753515Y-13807508D01*
X13753515Y-13807508D02*
X13772562Y-13797984D01*
X13963039Y-13797984D02*
X13982086Y-13797984D01*
X13982086Y-13797984D02*
X14001134Y-13807508D01*
X14001134Y-13807508D02*
X14010658Y-13817031D01*
X14010658Y-13817031D02*
X14020182Y-13836079D01*
X14020182Y-13836079D02*
X14029705Y-13874174D01*
X14029705Y-13874174D02*
X14029705Y-13921793D01*
X14029705Y-13921793D02*
X14020182Y-13959888D01*
X14020182Y-13959888D02*
X14010658Y-13978936D01*
X14010658Y-13978936D02*
X14001134Y-13988460D01*
X14001134Y-13988460D02*
X13982086Y-13997984D01*
X13982086Y-13997984D02*
X13963039Y-13997984D01*
X13963039Y-13997984D02*
X13943991Y-13988460D01*
X13943991Y-13988460D02*
X13934467Y-13978936D01*
X13934467Y-13978936D02*
X13924943Y-13959888D01*
X13924943Y-13959888D02*
X13915420Y-13921793D01*
X13915420Y-13921793D02*
X13915420Y-13874174D01*
X13915420Y-13874174D02*
X13924943Y-13836079D01*
X13924943Y-13836079D02*
X13934467Y-13817031D01*
X13934467Y-13817031D02*
X13943991Y-13807508D01*
X13943991Y-13807508D02*
X13963039Y-13797984D01*
X14115420Y-13997984D02*
X14115420Y-13864650D01*
X14115420Y-13883698D02*
X14124943Y-13874174D01*
X14124943Y-13874174D02*
X14143991Y-13864650D01*
X14143991Y-13864650D02*
X14172563Y-13864650D01*
X14172563Y-13864650D02*
X14191610Y-13874174D01*
X14191610Y-13874174D02*
X14201134Y-13893222D01*
X14201134Y-13893222D02*
X14201134Y-13997984D01*
X14201134Y-13893222D02*
X14210658Y-13874174D01*
X14210658Y-13874174D02*
X14229705Y-13864650D01*
X14229705Y-13864650D02*
X14258277Y-13864650D01*
X14258277Y-13864650D02*
X14277324Y-13874174D01*
X14277324Y-13874174D02*
X14286848Y-13893222D01*
X14286848Y-13893222D02*
X14286848Y-13997984D01*
X14382086Y-13997984D02*
X14382086Y-13864650D01*
X14382086Y-13883698D02*
X14391610Y-13874174D01*
X14391610Y-13874174D02*
X14410658Y-13864650D01*
X14410658Y-13864650D02*
X14439229Y-13864650D01*
X14439229Y-13864650D02*
X14458277Y-13874174D01*
X14458277Y-13874174D02*
X14467801Y-13893222D01*
X14467801Y-13893222D02*
X14467801Y-13997984D01*
X14467801Y-13893222D02*
X14477324Y-13874174D01*
X14477324Y-13874174D02*
X14496372Y-13864650D01*
X14496372Y-13864650D02*
X14524943Y-13864650D01*
X14524943Y-13864650D02*
X14543991Y-13874174D01*
X14543991Y-13874174D02*
X14553515Y-13893222D01*
X14553515Y-13893222D02*
X14553515Y-13997984D01*
X14943991Y-13788460D02*
X14772563Y-14045603D01*
X15201134Y-13797984D02*
X15220182Y-13797984D01*
X15220182Y-13797984D02*
X15239229Y-13807508D01*
X15239229Y-13807508D02*
X15248753Y-13817031D01*
X15248753Y-13817031D02*
X15258277Y-13836079D01*
X15258277Y-13836079D02*
X15267801Y-13874174D01*
X15267801Y-13874174D02*
X15267801Y-13921793D01*
X15267801Y-13921793D02*
X15258277Y-13959888D01*
X15258277Y-13959888D02*
X15248753Y-13978936D01*
X15248753Y-13978936D02*
X15239229Y-13988460D01*
X15239229Y-13988460D02*
X15220182Y-13997984D01*
X15220182Y-13997984D02*
X15201134Y-13997984D01*
X15201134Y-13997984D02*
X15182086Y-13988460D01*
X15182086Y-13988460D02*
X15172563Y-13978936D01*
X15172563Y-13978936D02*
X15163039Y-13959888D01*
X15163039Y-13959888D02*
X15153515Y-13921793D01*
X15153515Y-13921793D02*
X15153515Y-13874174D01*
X15153515Y-13874174D02*
X15163039Y-13836079D01*
X15163039Y-13836079D02*
X15172563Y-13817031D01*
X15172563Y-13817031D02*
X15182086Y-13807508D01*
X15182086Y-13807508D02*
X15201134Y-13797984D01*
X15353515Y-13978936D02*
X15363039Y-13988460D01*
X15363039Y-13988460D02*
X15353515Y-13997984D01*
X15353515Y-13997984D02*
X15343991Y-13988460D01*
X15343991Y-13988460D02*
X15353515Y-13978936D01*
X15353515Y-13978936D02*
X15353515Y-13997984D01*
X15486848Y-13797984D02*
X15505896Y-13797984D01*
X15505896Y-13797984D02*
X15524944Y-13807508D01*
X15524944Y-13807508D02*
X15534467Y-13817031D01*
X15534467Y-13817031D02*
X15543991Y-13836079D01*
X15543991Y-13836079D02*
X15553515Y-13874174D01*
X15553515Y-13874174D02*
X15553515Y-13921793D01*
X15553515Y-13921793D02*
X15543991Y-13959888D01*
X15543991Y-13959888D02*
X15534467Y-13978936D01*
X15534467Y-13978936D02*
X15524944Y-13988460D01*
X15524944Y-13988460D02*
X15505896Y-13997984D01*
X15505896Y-13997984D02*
X15486848Y-13997984D01*
X15486848Y-13997984D02*
X15467801Y-13988460D01*
X15467801Y-13988460D02*
X15458277Y-13978936D01*
X15458277Y-13978936D02*
X15448753Y-13959888D01*
X15448753Y-13959888D02*
X15439229Y-13921793D01*
X15439229Y-13921793D02*
X15439229Y-13874174D01*
X15439229Y-13874174D02*
X15448753Y-13836079D01*
X15448753Y-13836079D02*
X15458277Y-13817031D01*
X15458277Y-13817031D02*
X15467801Y-13807508D01*
X15467801Y-13807508D02*
X15486848Y-13797984D01*
X15743991Y-13997984D02*
X15629706Y-13997984D01*
X15686848Y-13997984D02*
X15686848Y-13797984D01*
X15686848Y-13797984D02*
X15667801Y-13826555D01*
X15667801Y-13826555D02*
X15648753Y-13845603D01*
X15648753Y-13845603D02*
X15629706Y-13855127D01*
X15839229Y-13997984D02*
X15877325Y-13997984D01*
X15877325Y-13997984D02*
X15896372Y-13988460D01*
X15896372Y-13988460D02*
X15905896Y-13978936D01*
X15905896Y-13978936D02*
X15924944Y-13950365D01*
X15924944Y-13950365D02*
X15934467Y-13912269D01*
X15934467Y-13912269D02*
X15934467Y-13836079D01*
X15934467Y-13836079D02*
X15924944Y-13817031D01*
X15924944Y-13817031D02*
X15915420Y-13807508D01*
X15915420Y-13807508D02*
X15896372Y-13797984D01*
X15896372Y-13797984D02*
X15858277Y-13797984D01*
X15858277Y-13797984D02*
X15839229Y-13807508D01*
X15839229Y-13807508D02*
X15829706Y-13817031D01*
X15829706Y-13817031D02*
X15820182Y-13836079D01*
X15820182Y-13836079D02*
X15820182Y-13883698D01*
X15820182Y-13883698D02*
X15829706Y-13902746D01*
X15829706Y-13902746D02*
X15839229Y-13912269D01*
X15839229Y-13912269D02*
X15858277Y-13921793D01*
X15858277Y-13921793D02*
X15896372Y-13921793D01*
X15896372Y-13921793D02*
X15915420Y-13912269D01*
X15915420Y-13912269D02*
X15924944Y-13902746D01*
X15924944Y-13902746D02*
X15934467Y-13883698D01*
X16001134Y-13797984D02*
X16134467Y-13797984D01*
X16134467Y-13797984D02*
X16048753Y-13997984D01*
X16201134Y-13797984D02*
X16201134Y-13836079D01*
X16277325Y-13797984D02*
X16277325Y-13836079D01*
X16572563Y-14074174D02*
X16563039Y-14064650D01*
X16563039Y-14064650D02*
X16543991Y-14036079D01*
X16543991Y-14036079D02*
X16534468Y-14017031D01*
X16534468Y-14017031D02*
X16524944Y-13988460D01*
X16524944Y-13988460D02*
X16515420Y-13940841D01*
X16515420Y-13940841D02*
X16515420Y-13902746D01*
X16515420Y-13902746D02*
X16524944Y-13855127D01*
X16524944Y-13855127D02*
X16534468Y-13826555D01*
X16534468Y-13826555D02*
X16543991Y-13807508D01*
X16543991Y-13807508D02*
X16563039Y-13778936D01*
X16563039Y-13778936D02*
X16572563Y-13769412D01*
X16629706Y-13797984D02*
X16753515Y-13797984D01*
X16753515Y-13797984D02*
X16686848Y-13874174D01*
X16686848Y-13874174D02*
X16715420Y-13874174D01*
X16715420Y-13874174D02*
X16734468Y-13883698D01*
X16734468Y-13883698D02*
X16743991Y-13893222D01*
X16743991Y-13893222D02*
X16753515Y-13912269D01*
X16753515Y-13912269D02*
X16753515Y-13959888D01*
X16753515Y-13959888D02*
X16743991Y-13978936D01*
X16743991Y-13978936D02*
X16734468Y-13988460D01*
X16734468Y-13988460D02*
X16715420Y-13997984D01*
X16715420Y-13997984D02*
X16658277Y-13997984D01*
X16658277Y-13997984D02*
X16639229Y-13988460D01*
X16639229Y-13988460D02*
X16629706Y-13978936D01*
X16867801Y-13883698D02*
X16848753Y-13874174D01*
X16848753Y-13874174D02*
X16839230Y-13864650D01*
X16839230Y-13864650D02*
X16829706Y-13845603D01*
X16829706Y-13845603D02*
X16829706Y-13836079D01*
X16829706Y-13836079D02*
X16839230Y-13817031D01*
X16839230Y-13817031D02*
X16848753Y-13807508D01*
X16848753Y-13807508D02*
X16867801Y-13797984D01*
X16867801Y-13797984D02*
X16905896Y-13797984D01*
X16905896Y-13797984D02*
X16924944Y-13807508D01*
X16924944Y-13807508D02*
X16934468Y-13817031D01*
X16934468Y-13817031D02*
X16943991Y-13836079D01*
X16943991Y-13836079D02*
X16943991Y-13845603D01*
X16943991Y-13845603D02*
X16934468Y-13864650D01*
X16934468Y-13864650D02*
X16924944Y-13874174D01*
X16924944Y-13874174D02*
X16905896Y-13883698D01*
X16905896Y-13883698D02*
X16867801Y-13883698D01*
X16867801Y-13883698D02*
X16848753Y-13893222D01*
X16848753Y-13893222D02*
X16839230Y-13902746D01*
X16839230Y-13902746D02*
X16829706Y-13921793D01*
X16829706Y-13921793D02*
X16829706Y-13959888D01*
X16829706Y-13959888D02*
X16839230Y-13978936D01*
X16839230Y-13978936D02*
X16848753Y-13988460D01*
X16848753Y-13988460D02*
X16867801Y-13997984D01*
X16867801Y-13997984D02*
X16905896Y-13997984D01*
X16905896Y-13997984D02*
X16924944Y-13988460D01*
X16924944Y-13988460D02*
X16934468Y-13978936D01*
X16934468Y-13978936D02*
X16943991Y-13959888D01*
X16943991Y-13959888D02*
X16943991Y-13921793D01*
X16943991Y-13921793D02*
X16934468Y-13902746D01*
X16934468Y-13902746D02*
X16924944Y-13893222D01*
X16924944Y-13893222D02*
X16905896Y-13883698D01*
X17182087Y-13997984D02*
X17182087Y-13797984D01*
X17267801Y-13997984D02*
X17267801Y-13893222D01*
X17267801Y-13893222D02*
X17258277Y-13874174D01*
X17258277Y-13874174D02*
X17239230Y-13864650D01*
X17239230Y-13864650D02*
X17210658Y-13864650D01*
X17210658Y-13864650D02*
X17191611Y-13874174D01*
X17191611Y-13874174D02*
X17182087Y-13883698D01*
X17391611Y-13997984D02*
X17372563Y-13988460D01*
X17372563Y-13988460D02*
X17363039Y-13978936D01*
X17363039Y-13978936D02*
X17353515Y-13959888D01*
X17353515Y-13959888D02*
X17353515Y-13902746D01*
X17353515Y-13902746D02*
X17363039Y-13883698D01*
X17363039Y-13883698D02*
X17372563Y-13874174D01*
X17372563Y-13874174D02*
X17391611Y-13864650D01*
X17391611Y-13864650D02*
X17420182Y-13864650D01*
X17420182Y-13864650D02*
X17439230Y-13874174D01*
X17439230Y-13874174D02*
X17448753Y-13883698D01*
X17448753Y-13883698D02*
X17458277Y-13902746D01*
X17458277Y-13902746D02*
X17458277Y-13959888D01*
X17458277Y-13959888D02*
X17448753Y-13978936D01*
X17448753Y-13978936D02*
X17439230Y-13988460D01*
X17439230Y-13988460D02*
X17420182Y-13997984D01*
X17420182Y-13997984D02*
X17391611Y-13997984D01*
X17572563Y-13997984D02*
X17553515Y-13988460D01*
X17553515Y-13988460D02*
X17543992Y-13969412D01*
X17543992Y-13969412D02*
X17543992Y-13797984D01*
X17724944Y-13988460D02*
X17705896Y-13997984D01*
X17705896Y-13997984D02*
X17667801Y-13997984D01*
X17667801Y-13997984D02*
X17648753Y-13988460D01*
X17648753Y-13988460D02*
X17639230Y-13969412D01*
X17639230Y-13969412D02*
X17639230Y-13893222D01*
X17639230Y-13893222D02*
X17648753Y-13874174D01*
X17648753Y-13874174D02*
X17667801Y-13864650D01*
X17667801Y-13864650D02*
X17705896Y-13864650D01*
X17705896Y-13864650D02*
X17724944Y-13874174D01*
X17724944Y-13874174D02*
X17734468Y-13893222D01*
X17734468Y-13893222D02*
X17734468Y-13912269D01*
X17734468Y-13912269D02*
X17639230Y-13931317D01*
X17810658Y-13988460D02*
X17829706Y-13997984D01*
X17829706Y-13997984D02*
X17867801Y-13997984D01*
X17867801Y-13997984D02*
X17886849Y-13988460D01*
X17886849Y-13988460D02*
X17896373Y-13969412D01*
X17896373Y-13969412D02*
X17896373Y-13959888D01*
X17896373Y-13959888D02*
X17886849Y-13940841D01*
X17886849Y-13940841D02*
X17867801Y-13931317D01*
X17867801Y-13931317D02*
X17839230Y-13931317D01*
X17839230Y-13931317D02*
X17820182Y-13921793D01*
X17820182Y-13921793D02*
X17810658Y-13902746D01*
X17810658Y-13902746D02*
X17810658Y-13893222D01*
X17810658Y-13893222D02*
X17820182Y-13874174D01*
X17820182Y-13874174D02*
X17839230Y-13864650D01*
X17839230Y-13864650D02*
X17867801Y-13864650D01*
X17867801Y-13864650D02*
X17886849Y-13874174D01*
X17963039Y-14074174D02*
X17972563Y-14064650D01*
X17972563Y-14064650D02*
X17991611Y-14036079D01*
X17991611Y-14036079D02*
X18001134Y-14017031D01*
X18001134Y-14017031D02*
X18010658Y-13988460D01*
X18010658Y-13988460D02*
X18020182Y-13940841D01*
X18020182Y-13940841D02*
X18020182Y-13902746D01*
X18020182Y-13902746D02*
X18010658Y-13855127D01*
X18010658Y-13855127D02*
X18001134Y-13826555D01*
X18001134Y-13826555D02*
X17991611Y-13807508D01*
X17991611Y-13807508D02*
X17972563Y-13778936D01*
X17972563Y-13778936D02*
X17963039Y-13769412D01*
D12*
X12947500Y-14120500D02*
X12947500Y-14220500D01*
X12897500Y-14170500D02*
X12997500Y-14170500D01*
D11*
X13363039Y-14261984D02*
X13248753Y-14261984D01*
X13305896Y-14261984D02*
X13305896Y-14061984D01*
X13305896Y-14061984D02*
X13286848Y-14090555D01*
X13286848Y-14090555D02*
X13267801Y-14109603D01*
X13267801Y-14109603D02*
X13248753Y-14119127D01*
X13448753Y-14242936D02*
X13458277Y-14252460D01*
X13458277Y-14252460D02*
X13448753Y-14261984D01*
X13448753Y-14261984D02*
X13439229Y-14252460D01*
X13439229Y-14252460D02*
X13448753Y-14242936D01*
X13448753Y-14242936D02*
X13448753Y-14261984D01*
X13582086Y-14061984D02*
X13601134Y-14061984D01*
X13601134Y-14061984D02*
X13620182Y-14071508D01*
X13620182Y-14071508D02*
X13629705Y-14081031D01*
X13629705Y-14081031D02*
X13639229Y-14100079D01*
X13639229Y-14100079D02*
X13648753Y-14138174D01*
X13648753Y-14138174D02*
X13648753Y-14185793D01*
X13648753Y-14185793D02*
X13639229Y-14223888D01*
X13639229Y-14223888D02*
X13629705Y-14242936D01*
X13629705Y-14242936D02*
X13620182Y-14252460D01*
X13620182Y-14252460D02*
X13601134Y-14261984D01*
X13601134Y-14261984D02*
X13582086Y-14261984D01*
X13582086Y-14261984D02*
X13563039Y-14252460D01*
X13563039Y-14252460D02*
X13553515Y-14242936D01*
X13553515Y-14242936D02*
X13543991Y-14223888D01*
X13543991Y-14223888D02*
X13534467Y-14185793D01*
X13534467Y-14185793D02*
X13534467Y-14138174D01*
X13534467Y-14138174D02*
X13543991Y-14100079D01*
X13543991Y-14100079D02*
X13553515Y-14081031D01*
X13553515Y-14081031D02*
X13563039Y-14071508D01*
X13563039Y-14071508D02*
X13582086Y-14061984D01*
X13772562Y-14061984D02*
X13791610Y-14061984D01*
X13791610Y-14061984D02*
X13810658Y-14071508D01*
X13810658Y-14071508D02*
X13820182Y-14081031D01*
X13820182Y-14081031D02*
X13829705Y-14100079D01*
X13829705Y-14100079D02*
X13839229Y-14138174D01*
X13839229Y-14138174D02*
X13839229Y-14185793D01*
X13839229Y-14185793D02*
X13829705Y-14223888D01*
X13829705Y-14223888D02*
X13820182Y-14242936D01*
X13820182Y-14242936D02*
X13810658Y-14252460D01*
X13810658Y-14252460D02*
X13791610Y-14261984D01*
X13791610Y-14261984D02*
X13772562Y-14261984D01*
X13772562Y-14261984D02*
X13753515Y-14252460D01*
X13753515Y-14252460D02*
X13743991Y-14242936D01*
X13743991Y-14242936D02*
X13734467Y-14223888D01*
X13734467Y-14223888D02*
X13724943Y-14185793D01*
X13724943Y-14185793D02*
X13724943Y-14138174D01*
X13724943Y-14138174D02*
X13734467Y-14100079D01*
X13734467Y-14100079D02*
X13743991Y-14081031D01*
X13743991Y-14081031D02*
X13753515Y-14071508D01*
X13753515Y-14071508D02*
X13772562Y-14061984D01*
X13963039Y-14061984D02*
X13982086Y-14061984D01*
X13982086Y-14061984D02*
X14001134Y-14071508D01*
X14001134Y-14071508D02*
X14010658Y-14081031D01*
X14010658Y-14081031D02*
X14020182Y-14100079D01*
X14020182Y-14100079D02*
X14029705Y-14138174D01*
X14029705Y-14138174D02*
X14029705Y-14185793D01*
X14029705Y-14185793D02*
X14020182Y-14223888D01*
X14020182Y-14223888D02*
X14010658Y-14242936D01*
X14010658Y-14242936D02*
X14001134Y-14252460D01*
X14001134Y-14252460D02*
X13982086Y-14261984D01*
X13982086Y-14261984D02*
X13963039Y-14261984D01*
X13963039Y-14261984D02*
X13943991Y-14252460D01*
X13943991Y-14252460D02*
X13934467Y-14242936D01*
X13934467Y-14242936D02*
X13924943Y-14223888D01*
X13924943Y-14223888D02*
X13915420Y-14185793D01*
X13915420Y-14185793D02*
X13915420Y-14138174D01*
X13915420Y-14138174D02*
X13924943Y-14100079D01*
X13924943Y-14100079D02*
X13934467Y-14081031D01*
X13934467Y-14081031D02*
X13943991Y-14071508D01*
X13943991Y-14071508D02*
X13963039Y-14061984D01*
X14115420Y-14261984D02*
X14115420Y-14128650D01*
X14115420Y-14147698D02*
X14124943Y-14138174D01*
X14124943Y-14138174D02*
X14143991Y-14128650D01*
X14143991Y-14128650D02*
X14172563Y-14128650D01*
X14172563Y-14128650D02*
X14191610Y-14138174D01*
X14191610Y-14138174D02*
X14201134Y-14157222D01*
X14201134Y-14157222D02*
X14201134Y-14261984D01*
X14201134Y-14157222D02*
X14210658Y-14138174D01*
X14210658Y-14138174D02*
X14229705Y-14128650D01*
X14229705Y-14128650D02*
X14258277Y-14128650D01*
X14258277Y-14128650D02*
X14277324Y-14138174D01*
X14277324Y-14138174D02*
X14286848Y-14157222D01*
X14286848Y-14157222D02*
X14286848Y-14261984D01*
X14382086Y-14261984D02*
X14382086Y-14128650D01*
X14382086Y-14147698D02*
X14391610Y-14138174D01*
X14391610Y-14138174D02*
X14410658Y-14128650D01*
X14410658Y-14128650D02*
X14439229Y-14128650D01*
X14439229Y-14128650D02*
X14458277Y-14138174D01*
X14458277Y-14138174D02*
X14467801Y-14157222D01*
X14467801Y-14157222D02*
X14467801Y-14261984D01*
X14467801Y-14157222D02*
X14477324Y-14138174D01*
X14477324Y-14138174D02*
X14496372Y-14128650D01*
X14496372Y-14128650D02*
X14524943Y-14128650D01*
X14524943Y-14128650D02*
X14543991Y-14138174D01*
X14543991Y-14138174D02*
X14553515Y-14157222D01*
X14553515Y-14157222D02*
X14553515Y-14261984D01*
X14943991Y-14052460D02*
X14772563Y-14309603D01*
X15201134Y-14061984D02*
X15220182Y-14061984D01*
X15220182Y-14061984D02*
X15239229Y-14071508D01*
X15239229Y-14071508D02*
X15248753Y-14081031D01*
X15248753Y-14081031D02*
X15258277Y-14100079D01*
X15258277Y-14100079D02*
X15267801Y-14138174D01*
X15267801Y-14138174D02*
X15267801Y-14185793D01*
X15267801Y-14185793D02*
X15258277Y-14223888D01*
X15258277Y-14223888D02*
X15248753Y-14242936D01*
X15248753Y-14242936D02*
X15239229Y-14252460D01*
X15239229Y-14252460D02*
X15220182Y-14261984D01*
X15220182Y-14261984D02*
X15201134Y-14261984D01*
X15201134Y-14261984D02*
X15182086Y-14252460D01*
X15182086Y-14252460D02*
X15172563Y-14242936D01*
X15172563Y-14242936D02*
X15163039Y-14223888D01*
X15163039Y-14223888D02*
X15153515Y-14185793D01*
X15153515Y-14185793D02*
X15153515Y-14138174D01*
X15153515Y-14138174D02*
X15163039Y-14100079D01*
X15163039Y-14100079D02*
X15172563Y-14081031D01*
X15172563Y-14081031D02*
X15182086Y-14071508D01*
X15182086Y-14071508D02*
X15201134Y-14061984D01*
X15353515Y-14242936D02*
X15363039Y-14252460D01*
X15363039Y-14252460D02*
X15353515Y-14261984D01*
X15353515Y-14261984D02*
X15343991Y-14252460D01*
X15343991Y-14252460D02*
X15353515Y-14242936D01*
X15353515Y-14242936D02*
X15353515Y-14261984D01*
X15486848Y-14061984D02*
X15505896Y-14061984D01*
X15505896Y-14061984D02*
X15524944Y-14071508D01*
X15524944Y-14071508D02*
X15534467Y-14081031D01*
X15534467Y-14081031D02*
X15543991Y-14100079D01*
X15543991Y-14100079D02*
X15553515Y-14138174D01*
X15553515Y-14138174D02*
X15553515Y-14185793D01*
X15553515Y-14185793D02*
X15543991Y-14223888D01*
X15543991Y-14223888D02*
X15534467Y-14242936D01*
X15534467Y-14242936D02*
X15524944Y-14252460D01*
X15524944Y-14252460D02*
X15505896Y-14261984D01*
X15505896Y-14261984D02*
X15486848Y-14261984D01*
X15486848Y-14261984D02*
X15467801Y-14252460D01*
X15467801Y-14252460D02*
X15458277Y-14242936D01*
X15458277Y-14242936D02*
X15448753Y-14223888D01*
X15448753Y-14223888D02*
X15439229Y-14185793D01*
X15439229Y-14185793D02*
X15439229Y-14138174D01*
X15439229Y-14138174D02*
X15448753Y-14100079D01*
X15448753Y-14100079D02*
X15458277Y-14081031D01*
X15458277Y-14081031D02*
X15467801Y-14071508D01*
X15467801Y-14071508D02*
X15486848Y-14061984D01*
X15620182Y-14061984D02*
X15743991Y-14061984D01*
X15743991Y-14061984D02*
X15677325Y-14138174D01*
X15677325Y-14138174D02*
X15705896Y-14138174D01*
X15705896Y-14138174D02*
X15724944Y-14147698D01*
X15724944Y-14147698D02*
X15734467Y-14157222D01*
X15734467Y-14157222D02*
X15743991Y-14176269D01*
X15743991Y-14176269D02*
X15743991Y-14223888D01*
X15743991Y-14223888D02*
X15734467Y-14242936D01*
X15734467Y-14242936D02*
X15724944Y-14252460D01*
X15724944Y-14252460D02*
X15705896Y-14261984D01*
X15705896Y-14261984D02*
X15648753Y-14261984D01*
X15648753Y-14261984D02*
X15629706Y-14252460D01*
X15629706Y-14252460D02*
X15620182Y-14242936D01*
X15839229Y-14261984D02*
X15877325Y-14261984D01*
X15877325Y-14261984D02*
X15896372Y-14252460D01*
X15896372Y-14252460D02*
X15905896Y-14242936D01*
X15905896Y-14242936D02*
X15924944Y-14214365D01*
X15924944Y-14214365D02*
X15934467Y-14176269D01*
X15934467Y-14176269D02*
X15934467Y-14100079D01*
X15934467Y-14100079D02*
X15924944Y-14081031D01*
X15924944Y-14081031D02*
X15915420Y-14071508D01*
X15915420Y-14071508D02*
X15896372Y-14061984D01*
X15896372Y-14061984D02*
X15858277Y-14061984D01*
X15858277Y-14061984D02*
X15839229Y-14071508D01*
X15839229Y-14071508D02*
X15829706Y-14081031D01*
X15829706Y-14081031D02*
X15820182Y-14100079D01*
X15820182Y-14100079D02*
X15820182Y-14147698D01*
X15820182Y-14147698D02*
X15829706Y-14166746D01*
X15829706Y-14166746D02*
X15839229Y-14176269D01*
X15839229Y-14176269D02*
X15858277Y-14185793D01*
X15858277Y-14185793D02*
X15896372Y-14185793D01*
X15896372Y-14185793D02*
X15915420Y-14176269D01*
X15915420Y-14176269D02*
X15924944Y-14166746D01*
X15924944Y-14166746D02*
X15934467Y-14147698D01*
X16105896Y-14128650D02*
X16105896Y-14261984D01*
X16058277Y-14052460D02*
X16010658Y-14195317D01*
X16010658Y-14195317D02*
X16134467Y-14195317D01*
X16201134Y-14061984D02*
X16201134Y-14100079D01*
X16277325Y-14061984D02*
X16277325Y-14100079D01*
X16572563Y-14338174D02*
X16563039Y-14328650D01*
X16563039Y-14328650D02*
X16543991Y-14300079D01*
X16543991Y-14300079D02*
X16534468Y-14281031D01*
X16534468Y-14281031D02*
X16524944Y-14252460D01*
X16524944Y-14252460D02*
X16515420Y-14204841D01*
X16515420Y-14204841D02*
X16515420Y-14166746D01*
X16515420Y-14166746D02*
X16524944Y-14119127D01*
X16524944Y-14119127D02*
X16534468Y-14090555D01*
X16534468Y-14090555D02*
X16543991Y-14071508D01*
X16543991Y-14071508D02*
X16563039Y-14042936D01*
X16563039Y-14042936D02*
X16572563Y-14033412D01*
X16734468Y-14128650D02*
X16734468Y-14261984D01*
X16686848Y-14052460D02*
X16639229Y-14195317D01*
X16639229Y-14195317D02*
X16763039Y-14195317D01*
X16877325Y-14061984D02*
X16896372Y-14061984D01*
X16896372Y-14061984D02*
X16915420Y-14071508D01*
X16915420Y-14071508D02*
X16924944Y-14081031D01*
X16924944Y-14081031D02*
X16934468Y-14100079D01*
X16934468Y-14100079D02*
X16943991Y-14138174D01*
X16943991Y-14138174D02*
X16943991Y-14185793D01*
X16943991Y-14185793D02*
X16934468Y-14223888D01*
X16934468Y-14223888D02*
X16924944Y-14242936D01*
X16924944Y-14242936D02*
X16915420Y-14252460D01*
X16915420Y-14252460D02*
X16896372Y-14261984D01*
X16896372Y-14261984D02*
X16877325Y-14261984D01*
X16877325Y-14261984D02*
X16858277Y-14252460D01*
X16858277Y-14252460D02*
X16848753Y-14242936D01*
X16848753Y-14242936D02*
X16839230Y-14223888D01*
X16839230Y-14223888D02*
X16829706Y-14185793D01*
X16829706Y-14185793D02*
X16829706Y-14138174D01*
X16829706Y-14138174D02*
X16839230Y-14100079D01*
X16839230Y-14100079D02*
X16848753Y-14081031D01*
X16848753Y-14081031D02*
X16858277Y-14071508D01*
X16858277Y-14071508D02*
X16877325Y-14061984D01*
X17182087Y-14261984D02*
X17182087Y-14061984D01*
X17267801Y-14261984D02*
X17267801Y-14157222D01*
X17267801Y-14157222D02*
X17258277Y-14138174D01*
X17258277Y-14138174D02*
X17239230Y-14128650D01*
X17239230Y-14128650D02*
X17210658Y-14128650D01*
X17210658Y-14128650D02*
X17191611Y-14138174D01*
X17191611Y-14138174D02*
X17182087Y-14147698D01*
X17391611Y-14261984D02*
X17372563Y-14252460D01*
X17372563Y-14252460D02*
X17363039Y-14242936D01*
X17363039Y-14242936D02*
X17353515Y-14223888D01*
X17353515Y-14223888D02*
X17353515Y-14166746D01*
X17353515Y-14166746D02*
X17363039Y-14147698D01*
X17363039Y-14147698D02*
X17372563Y-14138174D01*
X17372563Y-14138174D02*
X17391611Y-14128650D01*
X17391611Y-14128650D02*
X17420182Y-14128650D01*
X17420182Y-14128650D02*
X17439230Y-14138174D01*
X17439230Y-14138174D02*
X17448753Y-14147698D01*
X17448753Y-14147698D02*
X17458277Y-14166746D01*
X17458277Y-14166746D02*
X17458277Y-14223888D01*
X17458277Y-14223888D02*
X17448753Y-14242936D01*
X17448753Y-14242936D02*
X17439230Y-14252460D01*
X17439230Y-14252460D02*
X17420182Y-14261984D01*
X17420182Y-14261984D02*
X17391611Y-14261984D01*
X17572563Y-14261984D02*
X17553515Y-14252460D01*
X17553515Y-14252460D02*
X17543992Y-14233412D01*
X17543992Y-14233412D02*
X17543992Y-14061984D01*
X17724944Y-14252460D02*
X17705896Y-14261984D01*
X17705896Y-14261984D02*
X17667801Y-14261984D01*
X17667801Y-14261984D02*
X17648753Y-14252460D01*
X17648753Y-14252460D02*
X17639230Y-14233412D01*
X17639230Y-14233412D02*
X17639230Y-14157222D01*
X17639230Y-14157222D02*
X17648753Y-14138174D01*
X17648753Y-14138174D02*
X17667801Y-14128650D01*
X17667801Y-14128650D02*
X17705896Y-14128650D01*
X17705896Y-14128650D02*
X17724944Y-14138174D01*
X17724944Y-14138174D02*
X17734468Y-14157222D01*
X17734468Y-14157222D02*
X17734468Y-14176269D01*
X17734468Y-14176269D02*
X17639230Y-14195317D01*
X17810658Y-14252460D02*
X17829706Y-14261984D01*
X17829706Y-14261984D02*
X17867801Y-14261984D01*
X17867801Y-14261984D02*
X17886849Y-14252460D01*
X17886849Y-14252460D02*
X17896373Y-14233412D01*
X17896373Y-14233412D02*
X17896373Y-14223888D01*
X17896373Y-14223888D02*
X17886849Y-14204841D01*
X17886849Y-14204841D02*
X17867801Y-14195317D01*
X17867801Y-14195317D02*
X17839230Y-14195317D01*
X17839230Y-14195317D02*
X17820182Y-14185793D01*
X17820182Y-14185793D02*
X17810658Y-14166746D01*
X17810658Y-14166746D02*
X17810658Y-14157222D01*
X17810658Y-14157222D02*
X17820182Y-14138174D01*
X17820182Y-14138174D02*
X17839230Y-14128650D01*
X17839230Y-14128650D02*
X17867801Y-14128650D01*
X17867801Y-14128650D02*
X17886849Y-14138174D01*
X17963039Y-14338174D02*
X17972563Y-14328650D01*
X17972563Y-14328650D02*
X17991611Y-14300079D01*
X17991611Y-14300079D02*
X18001134Y-14281031D01*
X18001134Y-14281031D02*
X18010658Y-14252460D01*
X18010658Y-14252460D02*
X18020182Y-14204841D01*
X18020182Y-14204841D02*
X18020182Y-14166746D01*
X18020182Y-14166746D02*
X18010658Y-14119127D01*
X18010658Y-14119127D02*
X18001134Y-14090555D01*
X18001134Y-14090555D02*
X17991611Y-14071508D01*
X17991611Y-14071508D02*
X17972563Y-14042936D01*
X17972563Y-14042936D02*
X17963039Y-14033412D01*
M02*
