M48
; DRILL file {KiCad 8.0.9} date 2026-01-01T18:04:25+0900
; FORMAT={-:-/ absolute / metric / decimal}
; #@! TF.CreationDate,2026-01-01T18:04:25+09:00
; #@! TF.GenerationSoftware,Kicad,Pcbnew,8.0.9
; #@! TF.FileFunction,Plated,1,2,PTH
FMAT,2
METRIC
; #@! TA.AperFunction,Plated,PTH,ViaDrill
T1C0.300
; #@! TA.AperFunction,Plated,PTH,ComponentDrill
T2C0.500
; #@! TA.AperFunction,Plated,PTH,ComponentDrill
T3C1.000
%
G90
G05
T1
X141.0Y-95.0
X151.8Y-70.8
T2
X140.5Y-99.0
X140.5Y-106.0
X140.5Y-113.0
X140.5Y-120.0
X141.75Y-99.0
X141.75Y-106.0
X141.75Y-113.0
X141.75Y-120.0
X143.0Y-75.0
X143.0Y-99.0
X143.0Y-106.0
X143.0Y-113.0
X143.0Y-120.0
X144.25Y-75.0
X144.25Y-92.0
X144.25Y-99.0
X144.25Y-106.0
X144.25Y-113.0
X144.25Y-120.0
X145.5Y-75.0
X145.5Y-92.0
X145.5Y-99.0
X145.5Y-106.0
X145.5Y-113.0
X145.5Y-120.0
X146.75Y-75.0
X146.75Y-99.0
X146.75Y-106.0
X146.75Y-113.0
X146.75Y-120.0
X148.0Y-99.0
X148.0Y-106.0
X148.0Y-113.0
X148.0Y-120.0
X149.25Y-99.0
X149.25Y-106.0
X149.25Y-113.0
X149.25Y-120.0
T3
X155.23Y-73.37
X155.23Y-75.91
X155.23Y-78.45
X155.23Y-80.99
X155.23Y-83.53
X155.23Y-86.07
X155.23Y-88.61
X155.23Y-91.15
X155.23Y-93.69
X155.23Y-96.23
X155.23Y-98.77
X155.23Y-101.31
X155.23Y-103.85
X155.23Y-106.39
X155.23Y-108.93
X155.23Y-111.47
X155.23Y-114.01
X155.23Y-116.55
X155.23Y-119.09
X155.23Y-121.63
X157.77Y-73.37
X157.77Y-75.91
X157.77Y-78.45
X157.77Y-80.99
X157.77Y-83.53
X157.77Y-86.07
X157.77Y-88.61
X157.77Y-91.15
X157.77Y-93.69
X157.77Y-96.23
X157.77Y-98.77
X157.77Y-101.31
X157.77Y-103.85
X157.77Y-106.39
X157.77Y-108.93
X157.77Y-111.47
X157.77Y-114.01
X157.77Y-116.55
X157.77Y-119.09
X157.77Y-121.63
M30
